<?xml version="1.0" encoding="UTF-8"?>
<!DOCTYPE svg PUBLIC "-//W3C//DTD SVG 1.1//EN" "http://www.w3.org/Graphics/SVG/1.1/DTD/svg11.dtd">
<!-- Creator: CorelDRAW -->
<svg xmlns="http://www.w3.org/2000/svg" xml:space="preserve" width="30mm" height="30mm" style="shape-rendering:geometricPrecision; text-rendering:geometricPrecision; image-rendering:optimizeQuality; fill-rule:evenodd; clip-rule:evenodd"
viewBox="0 0 16.3094 16.3094"
 xmlns:xlink="http://www.w3.org/1999/xlink">
 <defs>
  <style type="text/css">
   <![CDATA[
    .fil1 {fill:white}
    .fil0 {fill:#C5CDD9}
   ]]>
  </style>
 </defs>
 <g id="图层_x0020_1">
  <metadata id="CorelCorpID_0Corel-Layer"/>
  <circle class="fil0" cx="8.15469" cy="8.15469" r="8.15469"/>
  <path class="fil1" d="M11.6742 12.158l0 -8.36312 -1.32209 -1.15231 -4.40087 1.64458 0 0.411268 3.9965 -1.34688 0 9.41013 2.66044 0 0 -0.603664 -0.933983 0zm-7.15487 -2.57634l2.09554 -0.419205 0 -1.06348 -2.09554 0.551257 0 0.931428zm0 3.19424l2.09554 0 0 -1.11583 -2.09554 0.152003 0 0.963829zm0 -1.6024l2.09554 -0.202454 0 -1.06158 -2.09554 0.352282 0 0.911748zm0 -3.2142l2.09554 -0.577297 0 -1.10409 -2.09554 0.708968 0 0.972419zm4.41984 -2.74644l-1.18308 -0.719135 -4.45512 1.60647 -0.00222895 6.69788 0.586811 0 0 -6.37381 3.33325 -1.09778 0 7.43734 1.72075 0 0 -7.55097 -0.000380552 0z"/>
 </g>
</svg>
