<?xml version="1.0" encoding="UTF-8"?>
<!DOCTYPE svg PUBLIC "-//W3C//DTD SVG 1.1//EN" "http://www.w3.org/Graphics/SVG/1.1/DTD/svg11.dtd">
<!-- Creator: CorelDRAW -->
<svg xmlns="http://www.w3.org/2000/svg" xml:space="preserve" width="30mm" height="30mm" style="shape-rendering:geometricPrecision; text-rendering:geometricPrecision; image-rendering:optimizeQuality; fill-rule:evenodd; clip-rule:evenodd"
viewBox="0 0 3.52725 3.52725"
 xmlns:xlink="http://www.w3.org/1999/xlink">
 <defs>
  <style type="text/css">
   <![CDATA[
    .fil1 {fill:white}
    .fil0 {fill:#F36A5A}
   ]]>
  </style>
 </defs>
 <g id="图层_x0020_1">
  <metadata id="CorelCorpID_0Corel-Layer"/>
  <circle class="fil0" cx="1.76362" cy="1.76362" r="1.76362"/>
  <path class="fil1" d="M2.52479 2.62943l0 -1.8087 -0.28593 -0.249212 -0.95178 0.355676 0 0.0889454 0.864328 -0.291292 0 2.03514 0.575376 0 0 -0.130555 -0.201994 0zm-1.54739 -0.557187l0.453204 -0.090662 0 -0.23 -0.453204 0.119221 0 0.201441zm0 0.690823l0.453204 0 0 -0.241322 -0.453204 0.0328739 0 0.208448zm0 -0.346552l0.453204 -0.0437849 0 -0.229588 -0.453204 0.0761885 0 0.197185zm0 -0.695138l0.453204 -0.124853 0 -0.238783 -0.453204 0.153329 0 0.210306zm0.955884 -0.593976l-0.255866 -0.155528 -0.963514 0.347434 -0.000482057 1.44856 0.12691 0 0 -1.37847 0.720887 -0.237419 0 1.60848 0.372148 0 0 -1.63306 -8.23024e-005 0z"/>
 </g>
</svg>
