<?xml version="1.0" encoding="UTF-8"?>
<!DOCTYPE svg PUBLIC "-//W3C//DTD SVG 1.1//EN" "http://www.w3.org/Graphics/SVG/1.1/DTD/svg11.dtd">
<!-- Creator: CorelDRAW -->
<svg xmlns="http://www.w3.org/2000/svg" xml:space="preserve" width="30mm" height="30mm" style="shape-rendering:geometricPrecision; text-rendering:geometricPrecision; image-rendering:optimizeQuality; fill-rule:evenodd; clip-rule:evenodd"
viewBox="0 0 8.58438 8.58438"
 xmlns:xlink="http://www.w3.org/1999/xlink">
 <defs>
  <style type="text/css">
   <![CDATA[
    .fil1 {fill:white}
    .fil0 {fill:#F4D03F}
   ]]>
  </style>
 </defs>
 <g id="图层_x0020_1">
  <metadata id="CorelCorpID_0Corel-Layer"/>
  <circle class="fil0" cx="4.29219" cy="4.29219" r="4.29219"/>
  <path class="fil1" d="M6.14467 6.39934l0 -4.4019 -0.695878 -0.606515 -2.31638 0.86562 0 0.216469 2.10354 -0.708927 0 4.95299 1.40031 0 0 -0.317736 -0.491599 0zm-3.76594 -1.35605l1.10298 -0.220647 0 -0.559759 -1.10298 0.290152 0 0.490254zm0 1.68128l1.10298 0 0 -0.587315 -1.10298 0.0800064 0 0.507308zm0 -0.843415l1.10298 -0.106561 0 -0.558757 -1.10298 0.185423 0 0.479895zm0 -1.69178l1.10298 -0.303858 0 -0.581134 -1.10298 0.373163 0 0.511829zm2.32637 -1.44558l-0.622711 -0.378514 -2.34494 0.845561 -0.0011732 3.5254 0.308866 0 0 -3.35483 1.75445 -0.577815 0 3.91462 0.905709 0 0 -3.97442 -0.000200302 0z"/>
 </g>
</svg>
