<?xml version="1.0" encoding="UTF-8"?>
<!DOCTYPE svg PUBLIC "-//W3C//DTD SVG 1.1//EN" "http://www.w3.org/Graphics/SVG/1.1/DTD/svg11.dtd">
<!-- Creator: CorelDRAW -->
<svg xmlns="http://www.w3.org/2000/svg" xml:space="preserve" width="30mm" height="30mm" style="shape-rendering:geometricPrecision; text-rendering:geometricPrecision; image-rendering:optimizeQuality; fill-rule:evenodd; clip-rule:evenodd"
viewBox="0 0 5.0432 5.0432"
 xmlns:xlink="http://www.w3.org/1999/xlink">
 <defs>
  <style type="text/css">
   <![CDATA[
    .fil1 {fill:white}
    .fil0 {fill:#4B77BE}
   ]]>
  </style>
 </defs>
 <g id="图层_x0020_1">
  <metadata id="CorelCorpID_0Corel-Layer"/>
  <circle class="fil0" cx="2.5216" cy="2.5216" r="2.5216"/>
  <path class="fil1" d="M3.6099 3.75952l0 -2.58605 -0.408818 -0.356319 -1.36084 0.508539 0 0.127173 1.2358 -0.416484 0 2.90981 0.822663 0 0 -0.186666 -0.288807 0zm-2.21243 -0.796657l0.647984 -0.129627 0 -0.32885 -0.647984 0.17046 0 0.288017zm0 0.987727l0.647984 0 0 -0.345039 -0.647984 0.0470026 0 0.298036zm0 -0.495494l0.647984 -0.0626029 0 -0.328262 -0.647984 0.108933 0 0.281932zm0 -0.993897l0.647984 -0.178512 0 -0.341408 -0.647984 0.219228 0 0.300692zm1.36671 -0.849258l-0.365834 -0.222371 -1.37762 0.496755 -0.000689237 2.07112 0.181454 0 0 -1.97092 1.03071 -0.339458 0 2.29978 0.532091 0 0 -2.33492 -0.000117675 0z"/>
 </g>
</svg>
