<?xml version="1.0" encoding="UTF-8"?>
<!DOCTYPE svg PUBLIC "-//W3C//DTD SVG 1.1//EN" "http://www.w3.org/Graphics/SVG/1.1/DTD/svg11.dtd">
<!-- Creator: CorelDRAW -->
<svg xmlns="http://www.w3.org/2000/svg" xml:space="preserve" width="30mm" height="30mm" style="shape-rendering:geometricPrecision; text-rendering:geometricPrecision; image-rendering:optimizeQuality; fill-rule:evenodd; clip-rule:evenodd"
viewBox="0 0 32.1491 32.1491"
 xmlns:xlink="http://www.w3.org/1999/xlink">
 <defs>
  <style type="text/css">
   <![CDATA[
    .fil0 {fill:#8E84B7}
    .fil1 {fill:white}
   ]]>
  </style>
 </defs>
 <g id="图层_x0020_1">
  <metadata id="CorelCorpID_0Corel-Layer"/>
  <circle class="fil0" cx="16.0745" cy="16.0745" r="16.0745"/>
  <path class="fil1" d="M23.0122 23.9659l0 -16.4854 -2.60611 -2.27144 -8.67499 3.2418 0 0.810692 7.87791 -2.65498 0 18.5493 5.24426 0 0 -1.18994 -1.84107 0zm-14.1037 -5.07848l4.13073 -0.826338 0 -2.09633 -4.13073 1.08664 0 1.83603zm0 6.2965l4.13073 0 0 -2.19953 -4.13073 0.299629 0 1.8999zm0 -3.15864l4.13073 -0.399077 0 -2.09258 -4.13073 0.69442 0 1.79724zm0 -6.33583l4.13073 -1.13797 0 -2.17638 -4.13073 1.39752 0 1.91683zm8.71239 -5.41379l-2.33209 -1.41756 -8.78194 3.16668 -0.0043937 13.2029 1.15672 0 0 -12.5641 6.57052 -2.16395 0 14.6605 3.39194 0 0 -14.8845 -0.000750145 0z"/>
 </g>
</svg>
