<?xml version="1.0" standalone="no"?>
<!DOCTYPE svg PUBLIC "-//W3C//DTD SVG 1.1//EN" "http://www.w3.org/Graphics/SVG/1.1/DTD/svg11.dtd" >
<!--
2013-9-30: Created.
-->
<svg>
<metadata>
Created by iconfont
</metadata>
<defs>

<font id="iconfont" horiz-adv-x="1024" >
  <font-face
    font-family="iconfont"
    font-weight="500"
    font-stretch="normal"
    units-per-em="1024"
    ascent="896"
    descent="-128"
  />
    <missing-glyph />
    
    <glyph glyph-name="x" unicode="x" horiz-adv-x="1001"
d="M281 543q-27 -1 -53 -1h-83q-18 0 -36.5 -6t-32.5 -18.5t-23 -32t-9 -45.5v-76h912v41q0 16 -0.5 30t-0.5 18q0 13 -5 29t-17 29.5t-31.5 22.5t-49.5 9h-133v-97h-438v97zM955 310v-52q0 -23 0.5 -52t0.5 -58t-10.5 -47.5t-26 -30t-33 -16t-31.5 -4.5q-14 -1 -29.5 -0.5
t-29.5 0.5h-32l-45 128h-439l-44 -128h-29h-34q-20 0 -45 1q-25 0 -41 9.5t-25.5 23t-13.5 29.5t-4 30v167h911zM163 247q-12 0 -21 -8.5t-9 -21.5t9 -21.5t21 -8.5q13 0 22 8.5t9 21.5t-9 21.5t-22 8.5zM316 123q-8 -26 -14 -48q-5 -19 -10.5 -37t-7.5 -25t-3 -15t1 -14.5
t9.5 -10.5t21.5 -4h37h67h81h80h64h36q23 0 34 12t2 38q-5 13 -9.5 30.5t-9.5 34.5q-5 19 -11 39h-368zM336 498v228q0 11 2.5 23t10 21.5t20.5 15.5t34 6h188q31 0 51.5 -14.5t20.5 -52.5v-227h-327z" />
    

    
    <glyph glyph-name="dianhua" unicode="&#59541;" d="M704 256c-64-64-64-128-128-128s-128 64-192 128-128 128-128 192 64 64 128 128-128 256-192 256-192-192-192-192c0-128 131.488-387.488 256-512s384-256 512-256c0 0 192 128 192 192s-192 256-256 192z"  horiz-adv-x="1024" />

    
    <glyph glyph-name="eye" unicode="&#58975;" d="M1005.482 384.079c0-95.008-203.483-297.684-493.455-297.684-282.592 0-493.455 199.341-493.455 297.684 0 98.329 211.773 297.366 493.455 297.366 292.252-0.001 493.524-199.037 493.455-297.366zM512.461 627.145c-131.33 0-237.793-108.901-237.793-243.228 0-134.327 106.462-243.228 237.793-243.228 131.371 0 237.837 108.901 237.837 243.228-0.001 134.326-106.466 243.228-237.837 243.228zM512.027 539.201c-83.634 0-151.435-69.337-151.435-154.877 0-85.531 67.801-154.88 151.435-154.88s151.408 69.349 151.408 154.88c0 85.54-67.773 154.877-151.408 154.877z"  horiz-adv-x="1024" />

    
    <glyph glyph-name="jiahao" unicode="&#58937;" d="M896.055296 363.911936 576.03584 363.911936 576.03584 683.931392 448.027648 683.931392 448.027648 363.911936 128.007168 363.911936 128.007168 235.903744 448.027648 235.903744 448.027648-84.116736 576.03584-84.116736 576.03584 235.903744 896.055296 235.903744Z"  horiz-adv-x="1024" />

    
    <glyph glyph-name="password" unicode="&#58884;" d="M809.99 440.459l-489.786 0.845c-0.197 66.065-17.97 168.454 38.429 230.605 34.285 37.889 92.081 76.873 153.735 76.873 91.087 0 159.196-68.707 192.177-153.734 9.61-24.525 18.065-37.739 38.441-38.441 51.092-1.547 47.984 52.347 38.43 76.871-47.642 122.757-137.024 192.174-269.047 192.174-89.729 0-139.173-18.417-192.164-76.869-81.075-89.329-77.076-233.761-76.871-307.477l-28.581-0.845c-26.715 0-48.291-21.37-48.291-47.645v-403.465c0-26.427 21.62-47.74 48.291-47.74h595.189c26.676 0 48.291 21.323 48.291 47.74v403.463c0.049 26.323-21.566 47.645-48.242 47.645v0zM782.592 57.227c0-10.63-3.707-19.748-11.285-27.221-7.515-7.521-16.597-11.284-27.218-11.284h-462.102c-10.63 0-19.703 3.71-27.173 11.284-7.521 7.519-11.332 16.591-11.332 27.221v269.563c0 21.203 17.244 38.458 38.505 38.458h462.093c21.26 0 38.513-17.254 38.513-38.458v-269.563z"  horiz-adv-x="1024" />

    
    <glyph glyph-name="minus" unicode="&#58997;" d="M64.782336 340.612864l892.371968 0 0-81.92-892.371968 0 0 81.92Z"  horiz-adv-x="1024" />

    
    <glyph glyph-name="user" unicode="&#58885;" d="M920.679-39.526c0-20.392-16.519-36.91-36.893-36.91-20.392 0-36.91 16.519-36.91 36.91l-0.331 3.427c0 1.457 0.264 2.863 0.413 4.303-23.040 161.992-161.926 281.032-331.034 282.902-1.357-0.033-2.648-0.216-4.022-0.216-1.341 0-2.632 0.182-3.972 0.216-167.172-1.853-304.733-118.262-330.091-277.44 0.844-3.128 1.44-6.356 1.44-9.749l0.348-3.476c0-20.707-16.783-37.49-37.473-37.49s-37.49 16.783-37.49 37.49l-0.033 0.331h-0.712c0.099 1.092 0.314 2.136 0.43 3.211 0 3.096 0.497 6.024 1.192 8.904 19.217 149.347 119.288 270.091 255.492 322.097-79.299 50.813-131.007 140.59-131.007 243.161 0 158.648 123.261 287.256 281.909 287.256 158.632 0 281.909-128.607 281.909-287.256 0-102.538-51.658-192.298-130.924-243.112 135.261-51.592 234.886-170.93 255.178-318.787 1.373-3.873 2.284-7.994 2.284-12.348l0.298-3.427zM729.027 538.063c0 119.95-97.224 217.176-217.176 217.176s-217.176-97.241-217.176-217.176c0-119.933 97.241-217.159 217.176-217.159s217.176 97.224 217.176 217.159z"  horiz-adv-x="1024" />

    
    <glyph glyph-name="xiaoxi" unicode="&#59801;" d="M1160.471 316.39c15.201 0 27.535 12.365 27.535 27.567v357.206c0 22.082-6.907 42.509-18.558 59.389-0.479 0.766-0.594 1.649-1.133 2.391-0.913 1.188-2.163 1.843-3.211 2.867-19.183 24.237-48.508 40.065-81.809 40.065h-867.125c-57.852 0-104.711-46.86-104.711-104.711v-634.358c0-57.858 46.86-104.68 104.711-104.68h867.125c57.858 0 104.711 46.822 104.711 104.68v87.249c-0.086 15.145-12.359 27.419-27.535 27.419-15.171 0-27.504-12.274-27.565-27.419v-81.741c0-30.457-24.716-55.126-55.126-55.126h-856.096c-30.408 0-55.131 24.668-55.131 55.126v623.334c0 3.015 0.428 5.887 0.883 8.787l481.757-392.959c0.024 0 0.080-0.030 0.11-0.061 4.297-3.204 9.179-4.57 14.123-5.109 1.423-0.257 2.813-0.172 4.265-0.203 1.421 0.030 2.813-0.055 4.234 0.203 4.97 0.538 9.858 1.905 14.123 5.109 0.024 0.032 0.086 0.061 0.112 0.061l446.349 388.18c0.086-1.337 0.399-2.642 0.399-4.008v-351.697c0-15.195 12.333-27.561 27.565-27.561v0zM221.683 750.781h856.096c7.249 0 14.154-1.484 20.52-4.040l-430.609-376.305-461.696 377.783c5.004 1.507 10.2 2.562 15.69 2.562v0zM221.683 750.781z"  horiz-adv-x="1307" />

    
    <glyph glyph-name="shuaxin" unicode="&#58929;" d="M895.28343 180.06135C844.659449 20.968959 695.719278-94.284995 519.853875-94.284995c-217.549781 0-393.910465 176.360683-393.910465 393.910465 0 217.552851 176.360683 393.910465 393.910465 393.910465 128.869043 0 243.274676-61.891605 315.14147-157.563572L677.419494 535.972363c-14.505365 0-26.261107-11.758812-26.261107-26.261107s11.755742-26.25906 26.261107-26.25906l210.085786 0c14.500249 0 26.25906 11.755742 26.25906 26.25906L913.76434 719.797042c0 14.503319-11.758812 26.261107-26.25906 26.261107-14.503319 0-26.261107-11.758812-26.261107-26.261107l0-132.508943C779.353071 684.376321 656.812153 746.059172 519.853875 746.059172c-246.558465 0-446.432679-199.874213-446.432679-446.432679 0-246.556419 199.874213-446.430632 446.432679-446.430632 203.345268 0 374.929158 135.955438 428.830789 321.92292C933.031149 189.294642 910.3598 195.858128 895.28343 180.06135z"  horiz-adv-x="1024" />

    
    <glyph glyph-name="xiazai" unicode="&#58903;" d="M820.156894 334.238802l-205.438952 0L614.717941 745.115684l-205.438952 0 0-410.877905L203.842083 334.237779l308.157405-273.915533L820.156894 334.238802zM203.842083-145.115684l616.313787 0 0 68.477604L203.842083-76.638079 203.842083-145.115684z"  horiz-adv-x="1024" />

    
    <glyph glyph-name="jian" unicode="&#58898;" d="M927.584 215.952 735.664 215.952l-127.968 0L415.808 215.952l-127.984 0L95.936 215.952c-53.024 0-95.936 43.712-95.936 97.76 0 53.936 42.976 97.728 95.936 97.728l223.952 0 95.936 0 191.904 0 127.968 0 191.904 0c53.008 0 96-43.792 96-97.728C1023.584 259.664 980.528 215.952 927.584 215.952z"  horiz-adv-x="1024" />

    
    <glyph glyph-name="qianbi" unicode="&#59414;" d="M517.063 607.744l160.91-160.91-336.64-328.676h-142.222v142.222l317.952 347.364M517.063 676.409c-7.282 0-14.564-2.788-20.11-8.334l-354.731-379.25v-199.111c0.853-14.393 14.052-27.591 28.444-28.444h199.111l368.526 365.454c11.122 11.122 11.122 29.127 0 40.22l-201.131 201.131c-5.547 5.547-12.828 8.334-20.11 8.334v0zM713.045 792.974v0l160.91-160.91-63.687-63.687-160.939 160.939 63.659 63.687c-0-0.028 0.028-0.028 0.057-0.028M713.045 849.863c-14.564 0-29.127-5.547-40.22-16.668l-103.936-103.908 241.351-241.351 103.908 103.908c22.215 22.215 22.215 58.226 0 80.441l-160.91 160.91c-11.093 11.122-25.657 16.668-40.192 16.668v0zM881.778-52.508h-739.556c-15.73 0-28.444 12.743-28.444 28.444s12.715 28.444 28.444 28.444h739.556c15.73 0 28.444-12.743 28.444-28.444s-12.715-28.444-28.444-28.444z"  horiz-adv-x="1024" />

    
    <glyph glyph-name="xingyexinxihua" unicode="&#59707;" d="M470.402 348.463l395.728 84.132c5.722-27.163 8.768-55.261 8.768-84.132 0-223.395-181.104-404.531-404.497-404.531-223.433 0-404.532 181.137-404.532 404.531 0 221.599 178.238 401.581 399.175 404.461l5.358-404.461zM662.691 819.886l-100.326-391.988 395.766 84.094c-31.843 150.471-147.278 270.092-295.44 307.893v0zM511.743 824.069c-1.797 0-3.56-0.055-5.356-0.055l5.356-404.478 100.29 391.969c-32.062 8.18-65.661 12.564-100.29 12.564z"  horiz-adv-x="1024" />

    
    <glyph glyph-name="guanlian" unicode="&#59796;" d="M481.736 574.558c-13.207-13.207-35.143-13.207-48.777 0-13.111 13.373-13.111 35.113 0 48.517l145.35 145.646c43.483 42.926 100.499 64.6 157.090 64.6 122.434 0 220.905-99.058 220.905-221.722 0-56.591-21.446-113.672-64.372-156.599l-158.429-158.495c-42.958-41.944-99.092-62.932-155.194-62.932-78.494 0-150.221 41.681-189.748 107.755v0.293c-9.741 15.855-17.065 32.922-22.46 49.955-5.328 18.080 4.969 37.368 22.918 42.729 18.634 5.33 37.63-4.87 42.894-23.179 3.497-11.966 8.793-23.702 15.137-34.654 27.363-45.868 77.612-74.67 131.259-74.67 39.070 0 77.581 14.679 107.267 43.48l158.132 158.235c29.719 29.815 44.397 69.079 44.397 108.082 0 84.871-67.903 152.708-152.707 152.708-39.068 0-78.495-14.679-107.852-44.397h-0.458l-145.352-145.352zM538.785 198.92v0l-145.351-145.581c-58.977-59.074-157.579-59.305-216.523-0.229v0 0.229c-59.075 59.011-59.075 157.316 0 216.262l156.5 157.12c29.848 29.229 68.817 44.168 108.343 44.168s78.495-14.94 108.311-44.168v-0.456c9.253-9.022 16.577-19.093 22.918-29.815 6.766-10.724 11.639-22.428 15.137-34.1 5.328-18.536 24.388-28.802 42.337-23.439 18.079 5.36 28.835 24.387 23.505 42.695-5.427 17.555-12.781 34.392-21.445 49.987-9.841 15.627-20.989 30.273-33.674 43.449-43.48 42.957-100.039 64.599-157.089 64.599-57.017 0-113.607-21.642-157.088-64.599l-156.566-156.861c-85.361-85.59-85.361-227.802 0-313.85l2.387-1.765c85.818-83.628 225.449-82.909 310.809 1.242v0.523l0.457 0.458 145.811 145.352c13.206 13.631 13.206 35.111-0.458 48.776-13.208 13.208-35.112 13.208-48.321 0v0z"  horiz-adv-x="1024" />

    
    <glyph glyph-name="jia" unicode="&#58883;" d="M908.512 205.6 595.248 205.6l0-319.2c0-52.896-42.096-95.712-93.968-95.712-51.952 0-93.984 42.832-93.984 95.712L407.296 205.6 93.952 205.6C42.096 205.6 0 248.4 0 301.328c0 52.832 42.096 95.712 93.952 95.712l313.28 0 0 319.2c0 52.832 42.096 95.744 93.952 95.744 51.904 0 93.984-42.928 93.984-95.744l0-319.2 313.28 0c51.936 0 93.952-42.896 93.952-95.712C1002.48 248.4 960.384 205.6 908.512 205.6z"  horiz-adv-x="1024" />

    
    <glyph glyph-name="sousuo" unicode="&#58899;" d="M980.696-36.628l-162.538 173.76c65.881 79.27 102.11 178.085 102.11 282.11 0 244.041-198.767 442.624-443.101 442.624-244.266 0-443.033-198.549-443.033-442.624 0-244.075 198.767-442.624 443.067-442.624 64.006 0.034 125.729 13.382 183.43 39.635 17.143 7.798 24.71 27.99 16.905 45.083-7.805 17.162-28.118 24.755-45.125 16.889-48.84-22.201-101.053-33.472-155.244-33.506-206.708 0-374.869 168.006-374.869 374.523 0 206.483 168.161 374.523 374.869 374.523 206.742 0 374.937-168.006 374.937-374.523 0-97.215-37.115-189.322-104.462-259.364-13.053-13.552-12.61-35.106 0.92-48.148 1.022-0.987 2.352-1.362 3.51-2.213 0.92-1.362 1.397-2.928 2.556-4.154l176.273-188.436c6.68-7.185 15.78-10.794 24.88-10.794 8.35 0 16.7 3.031 23.278 9.194 13.735 12.769 14.485 34.323 1.636 48.045v0z"  horiz-adv-x="1024" />

    
    <glyph glyph-name="hot" unicode="&#57891;" d="M515.763209 448.088644c-12.458753 0-23.344684-5.615904-33.263591-17.175171-9.977235-11.618619-15.045671-27.511587-15.045671-47.254234 0-20.472264 5.361101-36.405141 15.923668-47.359634 10.671037-11.06194 22.465664-16.431228 36.066427-16.431228 12.446473 0 23.294542 5.682419 33.183773 17.398252 9.949606 11.784394 14.996552 27.649733 14.996552 47.154973 0 20.396539-5.320169 36.299741-15.807011 47.25321C541.234323 442.71731 529.442766 448.088644 515.763209 448.088644zM842.828242 711.360769L181.180967 711.360769c-62.358233 0-112.911606-50.55235-112.911606-112.911606L68.269361 193.43582700000002c0-62.36642 50.553373-112.921839 112.911606-112.921839l235.183394 0 61.576427-94.084818 129.401162 94.084818 235.486292 0c62.349023 0 112.901373 50.554396 112.901373 112.921839L955.729615 598.44814C955.729615 660.807397 905.177266 711.360769 842.828242 711.360769zM408.564721 302.40975000000003l0.252757-5.231141-34.513048 0 0.146333 5.145184c0.781806 27.053146 1.211595 51.763944 1.269923 73.54604l-66.019623 0c0.067538-18.218944 0.48914-42.919509 1.258667-73.566506l0.127913-5.125741L276.654412 297.177586l0.204661 5.193279c1.171686 30.635741 1.76725 59.770292 1.76725 86.618776 0 28.078499-0.595564 54.380538-1.76725 78.193897l-0.265036 5.242398 34.580586 0-0.214894-5.214768c-0.936325-22.248723-1.443885-44.206828-1.512447-65.352427l66.515926 0c-0.077771 17.475-0.585331 39.441291-1.50426 65.393359l-0.184195 5.173836 34.570353 0-0.282433-5.272074c-1.258667-23.313985-1.905396-49.616024-1.905396-78.164221C406.659325 357.661122 407.305031 328.538851 408.564721 302.40975000000003zM574.811046 318.286346c-16.900925-17.289782-36.759205-26.057469-59.047838-26.057469-21.410636 0-40.419572 8.063653-56.498782 23.967878-16.107863 15.932878-24.270776 37.608549-24.270776 64.418148 0 28.897144 8.562003 52.221362 25.432229 69.317739 16.890692 17.114796 36.748972 25.793456 59.019185 25.793456 21.409612 0 40.419572-8.063653 56.510038-23.978111 16.09763-15.913435 24.260543-37.58706 24.260543-64.406892C600.214622 358.78266499999995 591.671039 335.55770800000005 574.811046 318.286346zM741.555721 444.290131l-5.077645 0.252757c-15.064091 0.762363-30.754444 1.172709-46.706765 1.251503-0.1361-15.405875-0.204661-34.338063-0.204661-56.803727 0-27.355021 0.429789-56.510038 1.269923-86.676082l0.144286-5.135974-33.545 0 0.186242 5.173836c1.004887 28.664853 1.512447 57.818847 1.512447 86.638219 0 22.104437-0.203638 41.180911-0.613984 56.783261-11.999288-0.10847-28.021194-0.605797-47.722908-1.483794l-5.409197-0.254803 0.997724 28.39163 136.165216 0L741.555721 444.290131z"  horiz-adv-x="1024" />

    
    <glyph glyph-name="jiantou-left" unicode="&#59273;" d="M238.978 441.812c150.177 145.192 300.353 290.378 450.526 435.422 61.836 59.842 154.021-37.327 91.899-97.313-133.647-129.23-267.296-258.318-400.868-387.548 134.287-133.646 268.574-267.436 402.934-401.083 61.123-60.84-31.060-158.011-91.971-97.244-150.89 150.105-301.703 300.279-452.521 450.454-24.934 24.933-25.575 72.666 0 97.311z"  horiz-adv-x="1024" />

    
    <glyph glyph-name="trash" unicode="&#59053;" d="M623.939 178.801v354.454c0 10.299-8.344 18.658-18.658 18.658-10.314 0-18.658-8.359-18.658-18.658v-354.454c0-10.299 8.344-18.658 18.658-18.658 10.314 0 18.658 8.359 18.658 18.658v0zM437.391 178.801v354.454c0 10.299-8.359 18.658-18.658 18.658-10.299 0-18.658-8.359-18.658-18.658v-354.454c0-10.299 8.359-18.658 18.658-18.658 10.299 0 18.658 8.359 18.658 18.658v0zM250.842 551.913c-10.299 0-18.658-8.359-18.658-18.658v-410.413c0-41.138 33.479-74.617 74.617-74.617h410.413c41.152 0 74.617 33.479 74.617 74.617v410.413c0 10.299-8.344 18.658-18.658 18.658-10.314 0-18.658-8.359-18.658-18.658v-410.413c0-20.569-16.747-37.316-37.316-37.316h-410.413c-20.569 0-37.316 16.732-37.316 37.316v410.413c0.015 10.299-8.33 18.658-18.629 18.658v0zM866.462 645.187c0 10.299-8.344 18.658-18.658 18.658h-178.832l-69.161 69.146c-3.501 3.501-8.228 5.47-13.187 5.47h-149.248c-4.945 0-9.686-1.969-13.187-5.47l-69.161-69.146h-178.832c-10.299 0-18.658-8.359-18.658-18.658s8.359-18.658 18.658-18.658h186.549c4.945 0 9.686 1.969 13.187 5.47l69.161 69.161h133.785l69.161-69.161c3.501-3.501 8.242-5.47 13.187-5.47h186.549c10.343 0 18.687 8.359 18.687 18.658v0z"  horiz-adv-x="1024" />

    
    <glyph glyph-name="jiantou" unicode="&#58954;" d="M71.83 399.474h652.298c-31.435 28.624-47.081 47.296-48.687 72.751 71.487-43.883 164.415-66.727 276.73-88.207-112.318-20.583-201.141-45.692-276.73-88.24 4.832 27.666 17.856 44.37 49.665 74.804h-653.278v28.896z"  horiz-adv-x="1024" />

    
    <glyph glyph-name="chacha" unicode="&#59681;" d="M145.328 834.164l815.065-815.066-82.335-82.336-815.066 815.065 82.336 82.337zM878.027 834.164l82.337-82.337-815.067-815.065-82.335 82.336 815.065 815.066zM878.027 834.164z"  horiz-adv-x="1024" />

    
    <glyph glyph-name="tuichu" unicode="&#944145;" d="M515.2 348.8c-17.6 0-32 14.4-32 32v480c0 17.6 14.4 32 32 32s32-14.4 32-32v-480c0-17.6-14.4-32-32-32zM678.4 673.6v0c0-12.8 6.4-22.4 16-27.2 129.6-72 214.4-217.6 193.6-379.2-20.8-171.2-160-307.2-331.2-326.4-225.6-25.6-419.2 152-419.2 374.4 0 137.6 73.6 257.6 182.4 323.2 9.6 6.4 16 16 16 27.2v0c0 25.6-27.2 40-48 27.2-137.6-81.6-227.2-236.8-212.8-411.2 16-217.6 193.6-393.6 411.2-408 257.6-16 470.4 187.2 470.4 440 0 166.4-92.8 312-230.4 387.2-20.8 12.8-48-1.6-48-27.2z"  horiz-adv-x="1024" />

    
    <glyph glyph-name="xiangxi" unicode="&#58971;" d="M915.33972 54.442192M561.092603 508.139322 266.492982 508.139322l0-49.64877L561.092603 458.490551 561.092603 508.139322 561.092603 508.139322zM389.25391 408.831548 266.492982 408.831548l0-24.832572 122.760928 0L389.25391 408.831548 389.25391 408.831548zM266.492982 160.528346l0-49.659003L561.092603 110.869343l0 49.659003L266.492982 160.528346 266.492982 160.528346zM291.053354 830.945355l0-124.148531 48.597835 0 0.502443 74.490551 491.000734 0 0-645.590578-49.097208 0.425695 0-50.114374 98.188276 0L880.245434 830.945355 291.053354 830.945355 291.053354 830.945355zM143.75252-62.944332l466.442408 0 0 28.488845 22.245653-22.939455 97.469915 100.485599 0.811482 18.090007 2.224668 0L732.946646 681.964252 143.75252 681.964252 143.75252-62.944332 143.75252-62.944332zM610.194928-22.54932l0 83.729983 77.038584 0L610.194928-22.54932 610.194928-22.54932zM192.838472 632.299109l491.000734 0 0-521.43079L561.092603 110.868319l0-49.688679 0.576121 0 0.860601-74.465992L192.838472-13.286352 192.838472 632.299109 192.838472 632.299109zM389.25391 235.014804 266.492982 235.014804l0-24.827455 122.760928 0L389.25391 235.014804 389.25391 235.014804zM561.092603 334.33588 266.492982 334.33588l0-49.682539L561.092603 284.653341 561.092603 334.33588 561.092603 334.33588zM561.092603 334.33588"  horiz-adv-x="1024" />

    
    <glyph glyph-name="scanning" unicode="&#59012;" d="M139.729 221.091h-46.545v-279.273h279.645v46.545l-233.1-0v232.727zM139.729 733.091h233.1v46.545h-279.645v-279.040h46.545l-0 232.495zM884.457 500.596h46.545v279.040h-279.366v-46.545h232.774v-232.495h0.047zM884.457-11.636h-232.82v-46.545h279.319v279.273h-46.545v-232.727h0.047zM46.499 384.326v-46.639h931.188v46.639h-931.188z"  horiz-adv-x="1024" />

    
    <glyph glyph-name="up2" unicode="&#58920;" d="M279.37 520.263h460.527l-230.265 311.085zM383.338 302.24v180.8h255.247v-180.8h-255.247zM383.338 116.122v122.307h255.247v-122.307h-255.247zM383.338-64.677v90.399h255.247v-90.399h-255.247z"  horiz-adv-x="1024" />

    
    <glyph glyph-name="xiala" unicode="&#58930;" d="M130.712 533.228c0 10.305 3.943 20.602 11.792 28.457 15.732 15.732 41.172 15.732 56.905 0l310.334-310.334 314.834 314.834c15.73 15.735 41.17 15.735 56.905 0 15.735-15.732 15.735-41.17 0-56.905L538.194 165.992c-15.735-15.735-41.172-15.735-56.905 0L142.505 504.773C134.662 512.623 130.712 522.921 130.712 533.228L130.712 533.228z"  horiz-adv-x="1024" />

    
    <glyph glyph-name="fandui" unicode="&#58924;" d="M173.983 459.304c-40.473 0-75.97-38.301-75.97-81.974v-325.004c0-41.844 34.080-75.879 75.97-75.879h90.068v482.857h-90.068zM908.299 450.482c-14.485 19.185-36.214 30.193-59.633 30.193h-229.379c15.503 17.569 25.161 48.605 25.715 58.426l3.412 14.319c13.014 51.919 10.81 106.548-6.425 158.112l-6.211 17.233c-10.070 30.181-39.359 51.266-71.214 51.266h-2.445c-41.905 0-78.672-35.277-78.672-75.501v-23.977c0-109.554-70.671-195.694-170.647-216.453v-487.66h434.971c34.020 0 64.197 23.453 73.341 56.957l100.084 349.002c6.66 23.109 1.827 48.556-12.896 68.078z"  horiz-adv-x="1024" />

    
    <glyph glyph-name="daochu" unicode="&#61029;" d="M948.64 160.674l-127.913-147.65c-6.933-7.995-16.551-12.928-27.106-12.928-21.236 0-38.411 19.8-38.411 44.283 0 12.242 4.309 23.297 11.242 31.291l62.395 72.013-342.268 0c-21.173 0.001-38.349 19.8-38.349 44.284 0 24.42 17.176 44.283 38.349 44.283h342.268l-62.395 71.952c-6.933 8.056-11.242 19.111-11.242 31.353 0 24.453 17.175 44.283 38.411 44.283 10.555 0 20.173-4.966 27.106-12.991l127.913-147.587c6.933-7.994 11.242-19.113 11.242-31.292 0-12.242-4.309-23.298-11.242-31.292zM640.099 575.705h-191.87l1.999 191.87h-257.825c-35.351 0-63.957-28.636-63.957-63.957v-639.566c0-35.289 28.606-63.957 63.957-63.957h383.74c35.288 0 63.957 28.668 63.957 63.957h63.957v-63.957c0-35.289-28.669-63.957-63.957-63.957h-511.653c-35.351-0-63.957 28.668-63.957 63.957v767.48c0 35.32 28.606 63.957 63.957 63.957h395.732l179.878-191.87v-255.827h-63.957v191.87z"  horiz-adv-x="1024" />

    
    <glyph glyph-name="aixin" unicode="&#58931;" d="M904.124188 712.5306c-43.212502 42.044294-102.760129 63.164974-179.024222 63.164974-21.12168 0-42.629097-3.71648-64.536045-10.952574-21.999085-7.333028-42.237163-17.305267-61.204303-29.626913-18.773272-12.417581-35.101201-23.95276-48.694785-34.905334-13.688719-10.852642-26.400101-22.38982-38.715551-34.612533-12.321646 12.321646-25.226297 23.759891-38.718749 34.612533-13.690718 10.853641-29.82278 22.584688-48.692786 34.905334-18.773671 12.41858-39.207417 22.293885-61.207901 29.626913-21.805216 7.333028-43.5109 10.952574-64.534646 10.952574-76.166159 0-135.808522-21.12068-179.024621-63.164974-43.220097-42.042495-64.632979-100.611585-64.632979-175.407674 0-22.782553 4.107615-46.15051 12.125179-70.302135 8.017564-24.151625 17.111398-44.781438 27.279904-61.793904 10.168106-17.111398 21.802618-33.538261 34.612533-49.672122 12.810315-16.129064 22.390819-27.281503 28.25984-33.439328 5.864424-6.057893 10.656775-10.458909 13.980921-13.295985L489.560262 1.595414c5.963357-5.953963 13.688719-9.287703 22.390819-9.287703s16.32693 3.035942 22.390819 9.287703l317.677814 305.946768c77.823036 77.833029 116.838384 154.289991 116.838384 229.381879C968.756167 611.919015 947.342686 670.488105 904.124188 712.5306zM807.819682 355.652364 511.949083 70.438539 215.588615 356.23297c-63.55431 63.556709-95.430498 123.883807-95.430498 181.085824 0 27.572306 3.715881 51.818667 10.951975 72.941346 7.332429 21.117682 16.620132 37.740212 28.060975 50.255727 11.34171 12.417581 25.225897 22.588685 41.553627 30.407384 16.330328 7.823696 32.266124 13.103116 47.911316 15.839261 15.645392 2.739143 32.266124 4.108215 49.86659 4.108215 17.793936 0 36.765473-4.302083 57.199019-13.004183 20.435545-8.704099 39.206818-19.457808 56.320615-32.754792 17.305267-13.102117 31.774857-25.421764 44.095903-36.764873 12.321646-11.34231 22.390819-21.805216 30.60425-31.38572 5.963557-7.429962 14.46959-11.148441 25.030429-11.148441 10.462906 0 18.773272 3.718479 25.034027 11.148441 8.1115 9.582503 18.278607 19.946476 30.602252 31.38572 12.317649 11.341311 26.983705 23.566022 44.095903 36.764873 17.304268 13.103116 35.88567 23.953759 56.319615 32.754792 20.436144 8.799034 39.403085 13.004183 57.199019 13.004183 17.797933 0 34.2186-1.469004 49.86799-4.108215 15.641395-2.639211 31.582587-8.015565 47.90552-15.839261 16.332926-7.821697 30.215314-17.991802 41.555625-30.407384 11.34231-12.41858 20.827679-29.138244 28.062973-50.255727 7.33103-21.12068 10.952574-45.36924 10.952574-72.941346C903.638517 479.923908 871.666194 419.593811 807.819682 355.652364z"  horiz-adv-x="1024" />

    
    <glyph glyph-name="yanjing" unicode="&#59331;" d="M891.672 398.068c0.543-2.766 0.948-5.58 0.948-8.486 0-26.781-24.023-48.492-53.66-48.492-18.104 0-33.827 8.309-43.535 20.728-4.213 7.463-8.854 14.667-13.69 21.742-20.32-113.265-133.588-200.069-270.681-200.069-137.072 0-250.324 86.778-270.671 200.021-4.949-7.244-9.696-14.619-13.988-22.264-9.714-12.165-25.374-20.158-43.247-20.158-29.634 0-53.656 21.711-53.656 48.492 0 4.199 0.773 8.199 1.884 12.084l-0.726 0.255c0.595 1.079 1.293 2.099 1.902 3.171 1.975 5.26 4.879 10.070 8.603 14.346 74.615 119.886 212.204 200.485 369.899 200.485 157.793 0 295.494-80.668 370.077-200.681 3.752-4.349 6.642-9.257 8.588-14.615 1.14-2.022 2.423-3.963 3.527-6.004l-1.575-0.556zM511.054 510.813c-52.681 0-95.392-43.421-95.392-96.984 0-53.564 42.711-96.985 95.392-96.985 52.684 0 95.391 43.425 95.391 96.985 0 53.563-42.708 96.984-95.391 96.984z"  horiz-adv-x="1024" />

    
    <glyph glyph-name="shouxujian" unicode="&#59029;" d="M861.191811 896 162.806466 896c-58.598194 0-106.269549-47.671355-106.269549-106.269549l0-811.460902c0-58.5913 47.671355-106.269549 106.269549-106.269549l698.385345 0c58.5913 0 106.269549 47.678249 106.269549 106.269549L967.46136 789.730451C967.454466 848.328645 919.783111 896 861.191811 896L861.191811 896 861.191811 896zM906.74329-21.730451c0-25.11105-20.440429-45.551479-45.551479-45.551479L162.806466-67.28193c-25.117944 0-45.551479 20.440429-45.551479 45.551479L117.254987 789.730451c0 25.11105 20.433535 45.551479 45.551479 45.551479l698.385345 0c25.11105 0 45.551479-20.433535 45.551479-45.551479L906.74329-21.730451 906.74329-21.730451 906.74329-21.730451zM204.385332 620.931458l95.054889 0 0-60.719794-95.054889 0L204.385332 620.931458 204.385332 620.931458 204.385332 620.931458zM204.385332 416.294499l95.054889 0 0-60.71807-95.054889 0L204.385332 416.294499 204.385332 416.294499 204.385332 416.294499zM204.385332 210.285653l95.054889 0 0-60.719794-95.054889 0L204.385332 210.285653 204.385332 210.285653 204.385332 210.285653zM352.335432 620.931458l467.277513 0 0-60.719794L352.335432 560.211664 352.335432 620.931458 352.335432 620.931458 352.335432 620.931458zM352.335432 416.294499l467.277513 0 0-60.71807L352.335432 355.576429 352.335432 416.294499 352.335432 416.294499 352.335432 416.294499zM352.335432 211.666157l467.277513 0 0-60.719794L352.335432 150.946364 352.335432 211.666157 352.335432 211.666157 352.335432 211.666157zM352.335432 211.666157"  horiz-adv-x="1024" />

    
    <glyph glyph-name="user-cz" unicode="&#58456;" d="M682.448 323.351l-1.216 15.978c-3.709 33.17 7.379 69.412 38.174 106.285 27.703 32.553 43.1 56.509 43.1 84.158 0 31.329-19.705 52.222-58.497 52.838-22.158 0-46.81-7.373-62.187-19.042l-14.779 38.702c20.303 14.745 55.405 24.574 88.054 24.574 70.802 0 102.832-43.616 102.832-90.316 0-41.765-23.394-71.871-52.953-106.891-27.105-31.946-36.957-58.978-35.103-90.306l0.618-15.978h-48.047zM668.907 237.343c0 22.733 15.396 38.702 36.957 38.702 21.539 0 36.319-15.969 36.319-38.702 0-21.5-14.16-38.083-36.937-38.083-21.561 0-36.338 16.586-36.338 38.083zM377.927 568.018c-2.014 0-4.068 0.298-6.093 0.926-0.629 0.199-63.103 19.46-116.455 19.46-53.361 0-115.837-19.262-116.465-19.46-10.789-3.343-22.227 2.636-25.579 13.371-3.37 10.735 2.624 22.166 13.382 25.529 2.793 0.865 68.957 21.311 128.661 21.311 59.694 0 125.859-20.445 128.651-21.311 10.759-3.362 16.753-14.794 13.382-25.529-2.721-8.715-10.789-14.297-19.486-14.297zM377.927 384.641c-2.014 0-4.068 0.298-6.093 0.926-0.629 0.199-63.103 19.46-116.455 19.46-53.361 0-115.837-19.262-116.465-19.46-10.789-3.303-22.227 2.646-25.579 13.371-3.37 10.735 2.624 22.166 13.382 25.529 2.793 0.865 68.957 21.311 128.661 21.311 59.694 0 125.859-20.445 128.651-21.311 10.759-3.362 16.753-14.794 13.382-25.529-2.721-8.715-10.789-14.297-19.486-14.297zM377.927 201.263c-2.014 0-4.068 0.298-6.093 0.926-0.629 0.199-63.103 19.46-116.455 19.46-53.361 0-115.837-19.262-116.465-19.46-10.789-3.312-22.227 2.636-25.579 13.371-3.37 10.735 2.624 22.166 13.382 25.529 2.793 0.865 68.957 21.311 128.661 21.311 59.694 0 125.859-20.445 128.651-21.311 10.759-3.362 16.753-14.794 13.382-25.529-2.721-8.715-10.789-14.297-19.486-14.297zM494.314-10.938c-21.399 0-42.841 4.198-63.712 12.595-58.238 23.42-113.853 34.812-170.005 34.812-125.101 0-216.815-37.995-217.732-38.372-9.443-3.969-19.894-2.975-28.451 2.686-8.556 5.661-13.312 15.222-13.312 25.469v723.323c0 12.207 6.891 23.25 18.14 28.076 4.109 1.76 102.21 43.267 242.209 43.267 84.673 0 149.185-22.116 190.431-38.752 26.297-10.605 56.285-10.963 82.301-0.986 38.603 14.834 116.731 39.735 206.38 39.735 138.981 0 255.429-40.811 260.325-42.542 12.217-4.338 20.135-15.869 20.135-28.803v-723.323c0-9.899-4.591-19.171-12.669-24.913-8.117-5.731-18.396-7.193-27.719-3.94-1.127 0.388-113.876 39.069-239.495 39.069-83.468 0-158.45-25.28-186.821-36.145-19.615-7.51-39.78-11.261-60.004-11.261zM260.622 97.595c63.263 0 128.159-13.202 192.909-39.249 25.978-10.446 53.225-10.785 78.864-0.955 31.562 12.087 115.222 40.204 208.942 40.204 89.959 0 172.572-17.729 219.143-30.305v659.87c-38.421 11.062-124.142 32.633-219.805 32.633-79.738 0-149.811-22.335-184.444-35.657-40.367-15.481-86.813-14.983-127.389 1.363-36.487 14.725-93.55 34.293-167.543 34.293-93.679 0-165.89-20.465-199.655-31.469v-659.332c40.75 12.544 113.457 28.602 198.978 28.602zM511.060 117.374c-11.279 0-20.958 9.124-20.958 20.375v489.008c0 11.251 9.679 20.375 20.958 20.375s20.958-9.124 20.958-20.375v-489.008c0-11.252-9.679-20.375-20.958-20.375z"  horiz-adv-x="1024" />

    
    <glyph glyph-name="loufang" unicode="&#59723;" d="M938.5 82.331h-62.413v499.315c0 22.978-18.63 41.609-41.609 41.609h-166.436v124.827c0 34.468-7.131 62.413-41.629 62.413h-416.089c-34.457 0-62.412-27.946-62.412-62.413v-665.751h-62.393c-11.499 0-20.805-9.305-20.805-20.805v-83.217c0-11.478 9.306-20.804 20.805-20.804h852.981c11.478 0 20.784 9.325 20.784 20.804v83.217c0 11.5-9.306 20.805-20.784 20.805zM376.781 165.549c0-22.959-18.63-41.609-41.609-41.609h-41.609c-22.978 0-41.609 18.651-41.609 41.609v41.609c0 22.999 18.63 41.609 41.609 41.609h41.609c22.978 0 41.609-18.611 41.609-41.609v-41.609zM376.781 373.593c0-22.958-18.63-41.609-41.609-41.609h-41.609c-22.978 0-41.609 18.652-41.609 41.609v41.609c0 22.999 18.63 41.619 41.609 41.619h41.609c22.978 0 41.609-18.62 41.609-41.619v-41.609zM376.781 581.646c0-22.978-18.63-41.609-41.609-41.609h-41.609c-22.978 0-41.609 18.63-41.609 41.609v41.609c0 22.978 18.63 41.609 41.609 41.609h41.609c22.978 0 41.609-18.63 41.609-41.609v-41.609zM564.021 165.549c0-22.959-18.631-41.609-41.609-41.609h-41.61c-22.977 0-41.608 18.651-41.608 41.609v41.609c0 22.999 18.63 41.609 41.608 41.609h41.61c22.977 0 41.609-18.611 41.609-41.609v-41.609zM564.021 373.593c0-22.958-18.631-41.609-41.609-41.609h-41.61c-22.977 0-41.608 18.652-41.608 41.609v41.609c0 22.999 18.63 41.619 41.608 41.619h41.61c22.977 0 41.609-18.62 41.609-41.619v-41.609zM564.021 581.646c0-22.978-18.631-41.609-41.609-41.609h-41.61c-22.977 0-41.608 18.63-41.608 41.609v41.609c0 22.978 18.63 41.609 41.608 41.609h41.61c22.977 0 41.609-18.63 41.609-41.609v-41.609zM792.869 227.962c0-11.479-9.325-20.805-20.804-20.805h-41.609c-11.479 0-20.805 9.325-20.805 20.805v41.608c0 11.5 9.325 20.805 20.805 20.805h41.609c11.478 0 20.804-9.305 20.804-20.805v-41.608zM792.869 394.397c0-11.478-9.325-20.804-20.804-20.804h-41.609c-11.479 0-20.805 9.325-20.805 20.804v41.609c0 11.499 9.325 20.815 20.805 20.815h41.609c11.478 0 20.804-9.316 20.804-20.815v-41.609z"  horiz-adv-x="1024" />

    
    <glyph glyph-name="paixu" unicode="&#59733;" d="M389.929 807.858c-1.93 4.514-4.726 8.747-8.41 12.431-11.173 11.173-27.357 14.271-41.314 9.312-3.345-1.187-6.551-2.838-9.54-4.957-1.821-1.282-3.557-2.727-5.185-4.355-1.626-1.627-183.706-184.529-183.706-184.529-15.469-15.476-15.475-40.564 0-56.039 15.474-15.474 40.565-15.474 56.039 0l116.057 116.057v-720.050c0-21.882 17.744-39.627 39.627-39.619 21.887 0 39.625 17.737 39.625 39.619l0 816.54h-0.019c0 5.312-1.051 10.624-3.174 15.59v0zM882.228 188.273c-15.475 15.475-40.566 15.475-56.040 0l-116.063-116.051 0.006 720.045c0 21.887-17.744 39.625-39.632 39.625-21.882 0-39.62-17.738-39.62-39.625v-816.539h0.012c0.005-5.306 1.057-10.623 3.18-15.59 1.93-4.513 4.725-8.741 8.411-12.426 11.175-11.175 27.355-14.277 41.314-9.316 3.346 1.185 6.55 2.843 9.54 4.955 1.82 1.288 3.557 2.734 5.184 4.362 1.626 1.627 183.706 184.522 183.706 184.522 15.469 15.475 15.469 40.563 0.002 56.038v0zM882.228 188.273z"  horiz-adv-x="1024" />

    
    <glyph glyph-name="wenzi" unicode="&#59033;" d="M60.216 835.805h421.267v-902.692h-110.331v-60.196h280.819v60.196h-110.328v902.692h421.263v-180.518h60.196v240.713h-1023.081v-240.713h60.195z"  horiz-adv-x="1024" />

    
    <glyph glyph-name="fangda" unicode="&#58938;" d="M1023.999973 862.926887C1023.999992 862.940503 1024 862.954122 1024 862.967742 1024 872.139265 1020.304623 880.386411 1014.327903 886.346123 1008.322522 892.247631 1000.075602 896 990.967744 896 990.954121 896 990.940501 895.999992 990.926886 895.999976 990.913282 895.999992 990.899663 896 990.886043 896L660.72686 896C642.667717 896 627.612903 881.210954 627.612903 862.967742 627.612903 844.597341 642.438527 829.935484 660.72686 829.935484L911.665296 829.935484 651.071063 569.341249C638.11548 556.385665 637.980403 535.515591 650.970237 522.525756 663.870138 509.625856 684.677393 509.518245 697.785731 522.626581L957.935483 782.776336 957.935483 532.72686C957.935483 514.667717 972.724531 499.612903 990.967744 499.612903 1009.338144 499.612903 1024 514.438527 1024 532.72686L1024 862.886043C1024 862.899663 1023.999992 862.913281 1023.999973 862.926898ZM-8.0e-06 862.926887C-2.7e-05 862.940503-3.4e-05 862.954122-3.4e-05 862.967742-3.4e-05 872.139265 3.695343 880.386411 9.672063 886.346123 15.677444 892.247631 23.924364 896 33.032224 896 33.045844 896 33.059463 895.999992 33.073079 895.999976 33.086684 895.999992 33.100302 896 33.113922 896L363.273106 896C381.332249 896 396.387063 881.210954 396.387063 862.967742 396.387063 844.597341 381.561439 829.935484 363.273106 829.935484L112.779149 829.935484 356.857255 585.857378C369.812839 572.901794 369.947916 552.03172 356.958081 539.041885 344.058182 526.141986 323.250925 526.034374 310.142588 539.14271L66.064482 783.220816 66.064482 532.72686C66.064482 514.667717 51.275436 499.612903 33.032224 499.612903 14.661822 499.612903-3.4e-05 514.438527-3.4e-05 532.72686L-3.4e-05 862.886043C-3.4e-05 862.899663-2.7e-05 862.913281-8.0e-06 862.926898ZM-8.0e-06-94.92692C-2.7e-05-94.940539-3.4e-05-94.954155-3.4e-05-94.967778-3.4e-05-104.139298 3.695343-112.386446 9.672063-118.346157 15.677444-124.247666 23.924364-128.000034 33.032224-128.000034 33.045844-128.000034 33.059463-128.000027 33.073079-128.000011 33.086684-128.000027 33.100302-128.000034 33.113922-128.000034L363.273106-128.000034C381.332249-128.000034 396.387063-113.21099 396.387063-94.967778 396.387063-76.597377 381.561439-61.935517 363.273106-61.935517L112.779149-61.935517 372.928903 198.214235C385.884487 211.169819 386.019564 232.039894 373.029729 245.029729 360.12983 257.929629 339.322573 258.03724 326.214236 244.928903L66.064482-15.22085 66.064482 235.273106C66.064482 253.332249 51.275436 268.387063 33.032224 268.387063 14.661822 268.387063-3.4e-05 253.561439-3.4e-05 235.273106L-3.4e-05-94.886078C-3.4e-05-94.899697-2.7e-05-94.913316-8.0e-06-94.926931ZM1023.999973-94.92692C1023.999992-94.940539 1024-94.954155 1024-94.967778 1024-104.139298 1020.304623-112.386446 1014.327903-118.346157 1008.322522-124.247666 1000.075602-128.000034 990.967744-128.000034 990.954121-128.000034 990.940501-128.000027 990.926886-128.000011 990.913282-128.000027 990.899663-128.000034 990.886043-128.000034L660.72686-128.000034C642.667717-128.000034 627.612903-113.21099 627.612903-94.967778 627.612903-76.597377 642.438527-61.935517 660.72686-61.935517L911.220816-61.935517 651.071063 198.214235C638.11548 211.169819 637.980403 232.039894 650.970237 245.029729 663.870138 257.929629 684.677393 258.03724 697.785731 244.928903L957.935483-15.22085 957.935483 235.273106C957.935483 253.332249 972.724531 268.387063 990.967744 268.387063 1009.338144 268.387063 1024 253.561439 1024 235.273106L1024-94.886078C1024-94.899697 1023.999992-94.913316 1023.999973-94.926931Z"  horiz-adv-x="1024" />

    
    <glyph glyph-name="iconsort" unicode="&#58927;" d="M279.15323-62.059228l217.110799 363.160177-141.539436 0L354.724593 832.042171l-151.123938 0 0-530.943021L62.057421 301.099151 279.15323-62.059228 279.15323-62.059228zM570.078783 831.535115l386.443791 0 0-108.976114L570.078583 722.559001 570.078783 831.535115 570.078783 831.535115zM570.078783 526.405993 878.364965 526.405993l0 108.974515L570.078783 635.380508 570.078783 526.405993zM570.078783 330.252984l230.128573 0 0 108.976114L570.078783 439.229099 570.078783 330.252984 570.078783 330.252984zM570.078783 134.095379l151.972163 0L722.050945 243.069695l-151.972163 0L570.078783 134.095379zM570.078783-62.059228l73.813355 0 0 108.974315-73.813355 0L570.078783-62.059228z"  horiz-adv-x="1024" />

    
    <glyph glyph-name="arrowd" unicode="&#59068;" d="M130.046 599.276l377.655-406.321 384.203 404.037z"  horiz-adv-x="1024" />

    
    <glyph glyph-name="yonghuxingweibaogao" unicode="&#58934;" d="M582 804 442 804 442 724 582 724 582 804ZM742 804 822.015796 804C877.235546 804 922 759.215017 922 704.001928L922 3.998072C922-51.229338 877.221348-96 822.015796-96L201.984204-96C146.764453-96 102-51.215016 102 3.998072L102 704.001928C102 759.229338 146.778652 804 201.984204 804L282 804 282 724 233.99568 724C205.295888 724 182 700.719452 182 672.00144L182 35.99856C182 7.26593 205.279258-16 233.99568-16L790.00432-16C818.704112-16 842 7.280548 842 35.99856L842 672.00144C842 700.734069 818.720742 724 790.00432 724L742 724 742 804ZM322 826.0077C322 848.094838 339.903752 866 362 866 384.09139 866 402 848.075324 402 826.0077L402 705.9923C402 683.905162 384.096248 666 362 666 339.90861 666 322 683.924676 322 705.9923L322 826.0077ZM622 826.0077C622 848.094838 639.903752 866 662 866 684.09139 866 702 848.075324 702 826.0077L702 705.9923C702 683.905162 684.096248 666 662 666 639.90861 666 622 683.924676 622 705.9923L622 826.0077ZM583.529096 354.036812C692.341136 322.96699 772 222.786158 772 104L714.222222 104C714.222222 215.68425 623.68425 306.222222 512 306.222222 400.31575 306.222222 309.777778 215.68425 309.777778 104L252 104C252 222.786158 331.658864 322.96699 440.470904 354.036812 396.91441 378.911788 367.555556 425.805108 367.555556 479.555556 367.555556 559.33002 432.225536 624 512 624 591.774464 624 656.444444 559.33002 656.444444 479.555556 656.444444 425.805108 627.08559 378.911788 583.529096 354.036812ZM512 392.888888C559.864678 392.888888 598.666668 431.690876 598.666668 479.555556 598.666668 527.420234 559.864678 566.222222 512 566.222222 464.135322 566.222222 425.333332 527.420234 425.333332 479.555556 425.333332 431.690876 464.135322 392.888888 512 392.888888Z"  horiz-adv-x="1024" />

    
    <glyph glyph-name="up3" unicode="&#58921;" d="M512 672l-224-288.384 149.312 0.384v-288h148.544l0.832 288h149.312z"  horiz-adv-x="1024" />

    
    <glyph glyph-name="fengxianicon" unicode="&#58993;" d="M512 831.675996c-247.244081 0-447.674972-200.430892-447.674972-447.674973s200.430892-447.674972 447.674972-447.674972 447.674972 200.430892 447.674972 447.674972S759.244081 831.675996 512 831.675996zM356.786962 120.554936l143.780661 246.51344-169.400155 17.879206L436.18836 647.445064l194.104813-20.48659-130.385582-187.260941 192.924941-20.361747-336.04557-298.78085z"  horiz-adv-x="1024" />

    
    <glyph glyph-name="jiechuheimingdan" unicode="&#58959;" d="M775.243473-88.303906H248.75755c-68.426439 0-123.889635 55.463196-123.889634 123.890658V376.275062c0 68.400856 55.463196 123.864052 123.889634 123.864052h46.430473V639.504208c0 119.733988 97.065709 216.799698 216.799697 216.799698 119.733988 0 216.799698-97.065709 216.799698-216.799698v-8.212032c0-53.719482-77.434603-60.438511-77.434603-0.895393v9.106402c0 76.986395-62.379723 139.390677-139.365095 139.390677-76.960813 0-139.365094-62.405305-139.365094-139.390677v-139.365095h402.619824c68.425416 0 123.888612-55.463196 123.888611-123.864052v-340.688309c0-68.426439-55.462173-123.889635-123.887588-123.889635zM481.233276 184.555575c-0.024559-0.621147-0.198521-1.218758-0.198522-1.865487v-77.43358c0-21.372773 17.317411-38.692231 38.691208-38.692231 21.399379 0 38.717813 17.319457 38.717813 38.692231v77.43358c0 0.647753-0.173962 1.24434-0.199545 1.865487 27.569916 14.084787 46.654576 42.449811 46.654577 75.568093 0 47.02706-38.119179 85.171822-85.172845 85.171822-47.02706 0-85.171822-38.144762-85.171822-85.171822-0.001023-33.118282 19.108197-61.483306 46.679136-75.568093z"  horiz-adv-x="1024" />

    
    <glyph glyph-name="homePage" unicode="&#59083;" d="M504.917 428.544c-22.955-24.575-22.955-64.427 0-89.004l418.645-449.109c22.955-24.575 60.245-24.576 83.2 0 22.955 24.575 22.955 64.427 0 89.004l-377.088 404.565 377.088 404.48c22.955 24.575 22.955 64.427 0 89.088-22.955 24.575-60.245 24.576-83.2 0l-418.645-449.024zM519.083-20.48l-377.173 404.48 377.088 404.48c22.955 24.575 22.955 64.427 0 89.088-22.955 24.575-60.245 24.576-83.2 0l-418.645-449.024c-22.955-24.575-22.955-64.427 0-89.088l418.731-449.023c22.955-24.575 60.245-24.576 83.2 0s22.955 64.427 0 89.088v0zM643.754-20.48z"  horiz-adv-x="1025" />

    
    <glyph glyph-name="yingyong-paiming" unicode="&#58974;" d="M514.08896 221.7984v-237.44512a16.34304 16.34304 0 0 1 16.30208-16.32256h120.07424a16.30208 16.30208 0 0 1 16.32256 16.32256v316.416l-122.10176-105.10336-30.59712 26.13248zM0.88064-15.64672c0-4.15744 1.59744-8.37632 4.79232-11.53024a16.13824 16.13824 0 0 1 11.53024-4.79232h120.05376a16.1792 16.1792 0 0 1 11.53024 4.79232 16.2816 16.2816 0 0 1 4.79232 11.53024V226.57024L0.83968 100.57728v-116.224z m256.53248 327.90528v-327.90528a16.2816 16.2816 0 0 1 16.34304-16.32256h120.09472a16.13824 16.13824 0 0 1 11.53024 4.79232 16.2816 16.2816 0 0 1 4.79232 11.53024v325.8368L333.824 375.1936l-76.41088-62.93504z m513.26976-327.90528a16.22016 16.22016 0 0 1 16.30208-16.32256h120.1152a16.22016 16.22016 0 0 1 11.55072 4.79232 16.2816 16.2816 0 0 1 4.79232 11.53024v537.3952l-152.80128-131.56352v-405.83168zM744.3456 799.98976a5.46816 5.46816 0 0 1-3.85024-9.33888l114.81088-112.86528-310.5792-267.40736-210.8416 179.58912L0 314.53184V195.584l333.88544 275.39456 210.8416-179.54816 375.15264 322.94912 94.84288-93.30688a5.44768 5.44768 0 1 1 9.27744 3.87072V794.54208a5.38624 5.38624 0 0 1-5.44768 5.4272H744.3456z"  horiz-adv-x="1025" />

    
    <glyph glyph-name="guanzhu" unicode="&#58904;" d="M736.2 832.1c-76.9 0-138.7-27.5-193-82.1 0 0-0.2 0-0.2-0.2L512 711l-31 36.6-0.2 0.2c-54.4 54.4-116.1 84.3-193 84.3S138.5 802.2 84.1 747.8C29.9 693.4 0 621 0 544.1s29.9-149.2 84.1-203.7l382.3-385.5c12-12 28.4-18.9 45.4-18.9s33.4 6.9 45.4 18.9l382.3 385.5c54.4 54.4 84.5 126.8 84.5 203.7s-29.9 149.2-84.3 203.7c-54.2 54.4-126.6 84.3-203.5 84.3z"  horiz-adv-x="1024" />

    
    <glyph glyph-name="suoxiao" unicode="&#58996;" d="M399.509504 527.880192V729.319424c-0.87552 11.331584-9.58976 18.31424-20.93056 18.31424H363.756544c-10.46528 0-20.05504-9.598976-20.05504-20.93056l0.87552-135.164928-231.960576 230.209536c-23.54688 26.1632-68.015104-14.8224-39.235584-40.111104L304.456704 553.167872l-131.673088-0.866304c-11.331584 0.866304-22.67136-6.982656-23.537664-20.05504v-14.831616c0-11.331584 9.58976-20.921344 20.921344-20.921344l199.698432 0.866304h11.331584c5.23264 0 9.58976 1.750016 13.95712 5.23264 3.482624 3.49184 5.23264 8.72448 5.23264 14.8224l-1.750016 10.46528h0.872448z m229.344256-25.288704c4.35712-3.482624 8.715264-5.23264 13.947904-5.23264H654.142464l199.689216-0.866304c11.331584 0 20.93056 10.46528 20.93056 20.921344v14.831616c-0.87552 13.072384-12.215296 20.921344-23.54688 20.05504l-131.673088 0.866304 231.085056 228.468736c28.770304 25.28768-15.69792 66.274304-39.2448 40.111104L679.430144 591.538176l0.866304 135.164928c0 11.331584-9.58976 20.93056-20.05504 20.93056H645.419008c-11.331584 0-20.05504-6.982656-20.93056-18.31424v-201.439232h0.87552l-1.7408-10.46528c-0.002048-6.098944 1.738752-11.331584 5.230592-14.823424zM395.152384 266.273792c-4.366336 3.49184-8.72448 5.23264-13.95712 5.23264H369.86368l-199.698432 0.87552c-11.331584-0.87552-20.921344-9.58976-20.921344-20.93056v-14.8224c0.866304-13.0816 12.20608-20.93056 23.537664-20.056064l131.673088-0.874496-231.07584-229.33504c-27.03872-25.288704 14.8224-66.274304 39.235584-40.111104l231.960576 231.07584-0.87552-136.031232c0-11.331584 9.58976-20.93056 20.05504-20.93056h14.8224c11.3408 0 20.05504 6.982656 20.93056 18.31424v201.439232h-0.87552l1.750016 11.331584c0.003072 6.107136-1.747968 11.339776-5.229568 14.8224z m324.388864-50.576384l131.673088 0.874496c13.0816-0.874496 20.93056 5.23264 23.54688 17.439744v17.43872c0 11.3408-9.598976 20.05504-20.93056 20.93056H654.14144h-13.0816c-4.35712 0-8.72448-2.61632-13.95712-6.974464-3.482624-3.49184-5.23264-8.72448-5.23264-14.8224l1.750016-10.46528h-0.87552v-201.439232c0.87552-11.331584 9.58976-18.31424 20.93056-18.31424h15.69792c10.456064 0 20.05504 9.598976 20.05504 20.93056l-0.87552 134.289408 232.825856-229.33504c12.20608-8.72448 27.904-11.3408 39.2448 0 11.331584 11.331584 11.331584 28.770304 0 40.111104l-231.081984 229.336064z"  horiz-adv-x="1024" />

    
    <glyph glyph-name="weibiaoti-s" unicode="&#59147;" d="M512.30208 875.57632c-274.4832 0-497.01376-222.53056-497.01376-497.01376s222.53056-497.01376 497.01376-497.01376 497.01376 222.53056 497.01376 497.01376c-0.08192 274.4832-222.53056 497.01376-497.01376 497.01376z m237.99808-655.67744a61.93664 61.93664 0 0 0-51.70176-27.71456c-11.8272 0-23.82336 3.38944-34.41152 10.42432L477.80352 326.8608a62.18752 62.18752 0 0 0-27.63264 51.70176V689.19808c0 34.3296 27.79648 62.12608 62.12608 62.12608s62.12608-27.79648 62.12608-62.12608v-277.376l158.75072-105.8048c28.46208-19.03104 36.23936-57.57952 17.1264-86.1184z"  horiz-adv-x="1024" />

    
    <glyph glyph-name="globe" unicode="&#59540;" d="M501.859 470.965c0.057 0.085 0.135 0.166 0.188 0.25-0.211 1.008-0.381 1.894-0.46 2.521 0.096-0.916 0.191-1.842 0.272-2.772v0zM698.501 256.25c0.007 0 0.007 0.011 0.007 0.018-0.025 0.011-0.114 0.011-0.13 0.036 0.025-0.025 0.094-0.025 0.123-0.054v0zM703.54 255.62c-1.219 0.197-3.957-0.159-5.039 0.63-0.663-2.304 0.338-3.169 5.039-0.63v0zM511.999 896c-282.774 0-511.993-229.22-511.993-511.986 0-282.768 229.219-511.993 511.993-511.993 282.761 0 511.984 229.223 511.984 511.993 0.001 282.765-229.223 511.986-511.984 511.986v0zM839.023 695.996c-17.637-0.531-29.92-0.567-44.095-10.348-5.706-3.945-9.584-9.175-16.831-11.206-6.501-1.829-13.514-0.226-19.962-2.414-23.259-7.894-19.575-57.719-50.226-50.191-14.398 3.529-24.547 20.545-31.792 31.653-6.386 9.776-18.009 17.865-10.154 30.095-3.582-0.918-7.401 0.131-10.928-0.538 4.908 10.781 21.379 9.838 24.116 15.348 6.821 13.813-18.789 15.253-26.037 17.166 8.74 9.319 13.167-3.132 21.792-1.019 8.292 2.039-4.377 12.961-9.345 14.186-1.786 0.442-30.985-8.065-14.086 7.056-20.86 13.296-41.714 26.592-62.575 39.9-3.515-14.798 27.765-23.202 37.978-28.418-1.586-6.11-11.086-15.008-18.363-12.401-6.859 2.46-4.075 13.811-14.425 12.672-7.385-17.178 15.625-12.157 17.763-22.686 2.43-11.993-8.702-6.909-12.979-6.705-1.020 0.057-8.996 8.313-9.427 2.060-0.519-7.425 12.72-4.529 13.655-12.027-15.423-0.623-23.293 4.943-35.847 13.286-14.656 9.726-22.172 8.847-40.127 8.847 5.369 2.206 12.765 3.844 17.354 7.391 2.511 1.945 12.351 11.505 13.003 13.639 2.777 9.216-0.154 8.514-8.966 14.556-7.84 5.362-17.343 14.985-26.837 16.877-34.409 6.87-10.61-31.058-36.726-36.289 0.448-0.023 0.928-0.047 1.315-0.047h-1.495c0.067 0.005 0.119 0.035 0.181 0.047-6.042 0.214-17.366 1.687-21.259-1.506-2.75-2.246-2.977-11.259-6.053-14.516-5.463-5.834-13.613-6.995-20.137-11.2-6.365-4.103-20.402-14.635-24.144-21.782-13.783-26.331 31.053-34.505 48.051-42.199 7.679-3.481 30.121-8.239 34.305-14.049 5.603-7.805-4.835-15.123 6.873-20.606 3.737-1.748 11.449-2.105 14.666 1.516 5.234 5.895-2.123 7.226-3.376 14.039-2.434 13.115 1.57 7.906 8.165 12.775 13.445 9.923 10.412 10.53 5.579 26.348-2.245 7.356-10.718 27.906-3.264 33.342 9.714 7.084 30.438-3.842 37.893-4.761 8.672-1.060 13.59-13.072 18.318-17.989 3.139-3.263 8.75-10.186 14.236-9.436 8.705 1.188 5.060 8.8 10.111 12.309 13.54 9.391 17.11-3.366 22.505-16.129 5.078-11.982 9.879-16.432 18.918-24.121 4.201-3.577 22.591-16.35 20.858-24.224-1.18-5.303-22.189-13.347-27.811-15.126-20.537-6.506-59.062 10.649-63.2-21.922 7.968 2.971 30.633 21.485 37.428 12.706 3.101-3.978-2.453-9.776-1.15-13.731 3.879-11.858 13.025-7.727 22.614-5.809-0.657-0.409-1.326-0.766-2.035-1.083 13.103 6.731 11.738 5.332 17.753 16.249 1.959 3.571 4.884 12.203 7.646 14.758 9.525 8.756 10.988 2.726 16.889-4.031 1.546-1.779 16.131-22.783 10.937-21.733-16.963 3.402-33.25 2.947-47.324-6.33-8.105-5.357-15.773-12.576-25.454-16.137-2.325-0.844-19.507-2.477-17.473 0.454 2.965 4.272 13.171 7.101 17.195 11.713-11.158 4.596-20.473-5.553-29.239-11.487-9.307-4.404-11.471-12.61-19.394-19.801-3.463-3.134-10.005-3.674-13.397-7.801-3.292-4.007-3.708-10.303-6.831-14.106-2.186-2.665-7.803-1.054-10.087-5.066-2.981-5.243 2.726-10.111 1.474-13.886-2.289-6.865-15.343-12.689-20.363-17.627 0.674 0.643 1.338 1.305 1.995 1.981-5.033-5.277-11.401-9.161-15.326-15.27 1.803-8.62 7.487-29.188 5.906-33.92-5.233-15.562-15.401 8.467-19.519 14.677-14.159 21.335-42.463 7.057-61.801 5.29-24.722-2.265-48.946-34.358-33.693-60.407 7.322-12.49 19.637-17.325 33.769-14.434 12.577 2.571 16.351 20.163 28.19 20.487 21.757 0.578 0.482-21.328-1.405-29.362-1.741-7.444 2.714-8.135 10.377-9.982 5.661-1.351 13.675 2.425 18.585-0.807 3.086-2.039 2.94-13.214 7.191-9.692-8.372-6.937-6.416-23.382 2.164-29.327 9.515-6.597 20.717-0.486 30.679-3.019 18.805-4.804 9.827 1.431 26.342 11.401 11.142 6.714 12.973-1.269 20.591-1.299 5.189-0.023 8.478 7.452 17.143 5.277 7.065-1.776 9.856-7.23 18.293-8.489 3.457-0.512 7.030 1.303 10.329 0.939 15.609-1.733 27.551-11.703 39.847-20.72 10.133-7.421 16.843-5.917 28.684-9.3 8.643-2.468 24.604-14.982 23.788-25.965-0.149-1.965-7.709-11.845-9.001-16.298 2.217-1.533 17.603 1.907 22.108 2.233-1.483-1.723-11.965-9.089-11.965-5.184 0-1.998 7.42-6.113 9.221-7.395 5.469 17.75 14.446 6.329 25.257 1.931 9.188-3.74 20.492-3.946 30.291-6.278 8.322-1.982 26.661-7.596 32.827-14.393 7.419-8.186 2.291-21.475-3.202-29.618-7.18-10.669-18.010-14.775-22.487-27.328-3.543-9.95-0.887-20.001-2.909-31.037-2.733-14.929-4.925-9.698-14.544-18.806-8.086-7.675-0.135-6.342-11.147-11.231-11.070-4.921-20.812-3.451-28.474-15.596 0.307 0.761 0.556 1.53 0.772 2.326-3.237-4.519-4.851-13.785-6.383-16.825-3.865-7.759-9.194-12.652-15.3-19.113-2.342-2.471-23.862-31.881-25.109-29.517-1.599 3.072-18.57-3.081-19.378 1.298 0.676-3.683-0.159-2.449 4.051-4.567-3.898-24.167-14.123-27.771-37.853-28.015 2.041-11.616-8.601-9.302-13.543-15.547-2.894-3.644-4.27-13.895-6.277-18.617-1.252-2.969-10.513-14.857-10.513-17.209-0.011-2.172 3.113-5.349 6.044-8.395-16.731-3.308-33.79-5.616-51.115-7.025 3.246 4.086 4.025 7.679-6.308 8.171 2.767 7.51 9.262 11.792 12.009 19.073 1.306 3.433 0.228 4.79 1.329 8.186 3.779 11.746 2.141 7.311 0.011 16.438-4.992 21.375 1.775 27.222 7.602 46.79 5.982 20.11 5.427 46.187 9.259 67.847 1.818 10.366 4.794 31.94 1.196 41.744-4.058 11.030-21.901 19.721-30.073 27.148-11.573 10.54-17.721 21.932-26.314 34.961-4.365 6.623-9.334 13.111-12.737 20.307-7.277 15.389 0.006 6.228 1.232 15.307 1.172 8.773-1.050 16.619 2.435 25.829 3.854 10.181 13.474 16.529 16.636 26.791 2.843 9.143 0.679 20.633-8.711 23.678-5.232 1.709-11.009-2.229-16.262-1.364-7.332 1.188-15.631 6.659-21.383 11.031-8.032 6.124-11.041 16.064-19.591 21.868-7.161 4.835-12.253 1.935-19.91 4.205-7.991 2.352-12.922 12.206-19.366 15.289-9.668 4.626-15.115-2.018-25.323-0.673-8.684 1.137-21.924 10.755-30.033 14.394-16.493 7.379-26.535 15.53-33.127 32.265-5.65 14.357-13.885 21.049-23.578 33.002-9.821 12.118-12.899 22.439-28.044 25.665-1.771 0.39 3.708-12.713 4.275-13.767 5.407-10.016 13.534-19.167 20.069-28.497 9.619-13.739 5.519-16.318-4.263-3.033-11.189 15.201-24.166 30.316-33.869 46.411-3.667 6.082-2.96 10.016-9.012 15.79-5.842 5.584-13.494 8.304-19.383 13.607-21.175 19.049-25.029 44.476-22.615 71.621 0.789 8.853 3.986 15.932 2.574 24.438-1.162 7.062-5.334 12.905-10.542 18.11-1.677 2.673-5.895 9.259-6.139 9.68-4.806 7.985-8.546 15.842-16.186 22.393-4.381 3.775-15.722 12.593-26.395 19.984 47.961 59.821 110.721 107.231 182.722 136.662 0.574-3.616 2.127-7.232 4.455-10.689 5.922-8.778 11.561-8.087 23.116-10.512-1.239-13.414-16.917-13.519-27.525-12.068-12.667 1.742-25.991 5.946-36.964-5.15 6.059-3.646 22.693-17.836 20.482-3.010 12.133 0.606 23.861 0.969 35.735-0.482 4.754-0.583 20.692-5.934 25.010-3.491 1.813 1.026 3.746 9.962 5.663 12.718-3.383-0.023-7.010 1.689-10.386 1.365 7.861 10.065 15.695 2.164 25.697-2.46-11.012-6.694-4.477-22.733 6.29-9.705 8.843 10.718-2.165 18.489-13.396 24.734 11.325 14.163 18.311 15.447 28.967-0.543 1.757 9.861 9.714 5.91 18.029 5.185v2.466c-3.662-0.090-7.567 2.018-11.194 1.636 8.473 13.519 3.065 16.607 15.178 21.022 9.645 3.509 37.168 0.237 40.556 9.306-19.259-3.74-42.524-4.637-59.9-13.394-7.493-3.774-16.422-15.698-23.902-7.952-7.669 7.952 5.486 20.733 12.214 24.627h-1.609c30.473 6.483 62.030 9.958 94.41 9.958 20.923 0 41.479-1.549 61.661-4.302-6.983-3.665-1.818-6.143-6.901-9.897-9.714-7.141-26.962-13.105-38.524-17.62 14.698 0.039 50.27-13.778 57.111 6.835-4.742 0.725-9.475 1.456-14.212 2.187 8.853 5.871 18.73 10.62 29.1 14.108 93.58-18.54 176.813-66.007 240.138-132.605-0.45 0.014-0.899 0.026-1.34 0.014v0zM921.888 516.237c0.845 1.804 2.812 2.393 3.625 3.876 1.71 3.125 1.329 5.245 3.433 7.918 2.254 2.895 5.299 3.606 7.815 5.865 1.014 0.913 1.581 1.758 2.045 2.62 7.551-21.077 13.569-42.871 17.95-65.246-0.135-0.159-0.212-0.402-0.377-0.532-1.097-0.874-8.275-1.939-9.746-1.99-5.196-0.199-9.056 3.249-12.785 6.495-3.801 3.292-8.263 7.709-10.962 11.975-2.884 4.558-1.104 9.243-0.893 14.452 0.169 4.377-1.962 10.624-0.103 14.566v0zM927.749 281.493c-8.796 7.638-19.173 17.881-25.423 27.775-6.678 10.553-2.564 21.412-2.076 33.497 0.407 10.162-4.555 24.627-0.24 33.78 1.982 4.176 6.526 5.559 8.401 8.982 3.972 7.249 3.095 12.146 7.974 18.38 5.233 6.695 12.271 8.339 18.103 13.585 6.109 5.504 5.939 9.845 9.811 16.895 2.826 5.159 9.479 13.756 15.777 18.25 3.414-22.38 5.193-45.306 5.193-68.621 0-40.351-5.367-79.454-15.308-116.715-8.481 2.189-15.45 8.299-22.213 14.194v0zM927.749 281.493z"  horiz-adv-x="1024" />

    
    <glyph glyph-name="redar-chart" unicode="&#58999;" d="M512.2 789.6l457.4-311-174.6-516.3h-565.6l-174.6 515.7 457.4 311.6zM512.2 847.1l-512.2-351.3 195.7-580.1h633.2l195.6 580.7-512.3 350.7M512.2 621.6l280.1-197-106.9-322.6h-346.4l-106.9 322.2 280.1 197.4zM512.2 679.1l-335-237 128-386.6h414l127.9 387-334.9 236.6M512.2 734.2l-232.8-372.4 465.7-372.6-232.9 745z"  horiz-adv-x="1024" />

    
    <glyph glyph-name="attention" unicode="&#59480;" d="M947.2 243.2h-128v128l-6.4 12.8h-89.6l-6.4-12.8v-128h-128l-12.8-12.8v-83.2l12.8-12.8h128v-134.4l6.4-6.4h89.6l6.4 6.4v134.4h128l12.8 12.8v83.2zM704 832c-70.4 0-134.4-25.6-192-64-57.6 38.4-121.6 64-192 64-179.2 0-320-147.2-320-320 0-224 358.4-480 467.2-556.8 0 0 12.8-6.4 19.2-6.4h19.2c25.6 0 51.2 6.4 64 44.8 12.8 6.4 19.2 44.8-32 70.4-128 83.2-416 313.6-416 448 0 128 64 192 198.4 192 64 0 121.6-25.6 166.4-70.4 6.4-6.4 12.8-6.4 19.2-12.8h12.8c6.4 0 12.8 6.4 19.2 12.8 44.8 51.2 108.8 70.4 166.4 70.4 128 0 192-64 192-198.4 0-12.8 0-32-6.4-57.6 0 0-6.4-12.8-6.4-19.2 0-38.4 19.2-51.2 32-57.6 19.2-6.4 51.2 0 64 12.8 12.8 12.8 19.2 19.2 19.2 25.6 0 0 0 6.4 6.4 6.4 12.8 25.6 19.2 70.4 19.2 96 0 172.8-140.8 320-320 320z"  horiz-adv-x="1024" />

    
    <glyph glyph-name="line" unicode="&#58986;" d="M1023.489-37.958c-2.956 18.316-19.968 30.976-38.307 30.976h-911.034v816.966c0 18.665-12.637 35.98-30.836 38.959-1.826 0.317-3.929 0.499-6.075 0.499-20.565 0-37.236-16.671-37.236-37.236 0-0.069 0-0.138 0.001-0.207l-0-846.418c-0-0.076-0.001-0.166-0.001-0.257 0-25.753 20.811-46.646 46.534-46.778l940.626-0c22.342 0 40.076 20.154 36.329 43.497M139.753 94.883c6.252-4.653 14.126-7.45 22.653-7.45 12.729 0 24.003 6.231 30.937 15.81l150.232 208.076 224.582-113.734c20.713-10.519 45.917-5.585 61.277 11.962l339.177 387.351c5.981 6.823 9.63 15.82 9.63 25.67 0 11.517-4.989 21.869-12.923 29.013-6.751 6.079-15.686 9.779-25.485 9.779-11.443 0-21.707-5.045-28.691-13.031l-326.229-372.478-226.257 114.641c-6.683 3.448-14.585 5.47-22.96 5.47-16.976 0-32.011-8.307-41.264-21.078l-163.104-225.801c-4.623-6.337-7.397-14.279-7.397-22.869 0-12.8 6.158-24.161 15.673-31.283z"  horiz-adv-x="1024" />

    
    <glyph glyph-name="new" unicode="&#58892;" d="M466.8 465.4c-16.5 0-30.4-5.5-41.7-16.6-11.3-11.1-17.5-25.9-18.7-44.4H525c-1.6 17.9-6.1 31.3-13.6 40.2-11.5 13.9-26.3 20.8-44.6 20.8zM887.5 657.1h-751C61.1 657.1 0 595.9 0 520.5v-273.1C0 172 61.1 110.9 136.5 110.9h750.9c75.4 0 136.5 61.1 136.5 136.5V520.5c0.1 75.4-61 136.6-136.4 136.6zM324 277.8h-36V407c0 14.7-1.4 25.6-4.2 32.9-2.8 7.3-7.8 13.1-14.9 17.4-7.1 4.3-15.5 6.5-25.1 6.5-15.3 0-28.6-4.9-39.7-14.6-11.1-9.7-16.7-28.2-16.7-55.4v-116h-36V490.2h32.4V460c15.6 23.3 38.1 35 67.6 35 12.8 0 24.6-2.3 35.3-6.9 10.7-4.6 18.8-10.6 24.1-18.1 5.3-7.5 9.1-16.3 11.2-26.6 1.3-6.7 2-18.3 2-35v-130.6z m238.8 97H404.4c1.3-23.3 7.9-41.2 19.8-53.6 11.9-12.4 26.7-18.6 44.4-18.6 13.2 0 24.5 3.5 33.8 10.4 9.3 6.9 16.7 18 22.2 33.2l37.2-4.6c-5.9-21.7-16.7-38.6-32.6-50.6-15.9-12-36.1-18-60.8-18-31.1 0-55.7 9.6-73.9 28.7-18.2 19.1-27.3 46-27.3 80.5 0 35.7 9.2 63.5 27.6 83.2 18.4 19.7 42.3 29.6 71.6 29.6 28.4 0 51.6-9.7 69.6-29s27-46.5 27-81.6c0-2.1-0.1-5.3-0.2-9.6z m243.4-97h-37.4L735 405l-8.2 36.2-43-163.4h-37.6l-65 212.4h37.2l33.8-122.6 12.6-45.6c0.5 2.3 4.2 16.9 11 43.8l33.8 124.4h37L778.4 367l10.6-40.6 12.2 41 36.4 122.8h35l-66.4-212.4z"  horiz-adv-x="1024" />

    
    <glyph glyph-name="heimingdan" unicode="&#59322;" d="M762.339 382.21q40.258 0 76.042-15.209t62.625-42.047 42.495-62.625 15.657-76.043-15.657-76.043-42.495-62.625-62.625-42.495-76.043-15.657q-41.154 0-76.94 15.657t-62.624 42.495-42.047 62.625-15.209 76.043 15.209 76.044 42.048 62.624 62.625 42.048 76.938 15.209zM859.854 155.869q13.419 0 22.813 8.051t9.394 21.472-9.394 22.813-22.813 9.394h-193.239q-13.42 0-22.813-9.394t-9.394-22.813 9.394-21.472 22.813-8.051h193.239zM502.001 104.874q3.578-17.892 11.63-37.574t23.708-39.811 39.365-39.811 60.387-36.681q-24.155-5.366-56.362-8.947-27.734-3.578-67.099-5.814t-90.358-2.237q-25.945 0-59.941 1.79t-70.675 4.921-72.466 7.604-65.308 8.947-50.1 8.946-25.945 8.947q-8.947 7.155-13.868 43.837t4.026 94.83q5.366 33.102 26.839 50.547t50.547 27.734 59.942 18.34 55.020 23.26q18.787 11.632 29.075 22.813t14.314 21.919 4.026 22.367-0.893 25.943q-1.79 20.576-14.314 32.654t-26.839 24.601q-7.157 6.262-12.972 17.445t-10.287 22.813q-4.474 13.42-8.947 28.628-6.263 1.79-12.524 6.263-5.366 4.474-11.183 12.524t-10.288 23.261q-5.366 15.207-4.026 27.733t4.921 22.367 11.63 18.787q0 33.997 3.578 67.993 3.578 28.628 12.524 61.73t27.734 59.045q16.998 25.051 38.021 41.154t42.495 25.049 43.389 12.078 42.495 3.131q25.945 0 50.098-6.262t44.732-16.103 36.679-22.367 25.945-25.049q23.259-28.628 33.997-63.072t15.209-65.755q4.474-35.785 4.474-72.466 6.263-4.473 9.841-11.63 3.578-6.263 5.814-16.103t0.447-25.050q-1.79-18.787-7.604-29.971t-12.972-17.444q-8.051-7.158-16.998-9.841-4.474-15.209-8.947-28.628-4.474-11.63-10.287-22.813t-12.973-17.445q-8.050-7.157-12.524-14.314t-7.157-14.315-5.815-15.657-9.394-17.445q-42.047-64.414-48.758-116.302t4.921-101.093z"  horiz-adv-x="1024" />

    
    <glyph glyph-name="My-report" unicode="&#58991;" d="M580 346.767c27.8 21.5 43.8 53.6 43.8 88 0 61.6-50.1 111.7-111.7 111.7s-111.7-50.1-111.7-111.7c0-34.4 15.9-66.5 44.3-84.1-78.1-30.7-128.6-110-128.6-201.9l2.3-20.5 38.7 2.3v18.3c0 97.8 68 174.3 154.9 174.3s155-76.6 155-174.4l2.3-20.5h38.7v20.5c0 92-50.4 171.2-128 198zM512.1 364.167c-38.9 0-70.6 31.7-70.6 70.6s31.7 70.6 70.6 70.6c39 0 70.7-31.7 70.7-70.6s-31.8-70.6-70.7-70.6zM879 598.9c0 7.5-2.9 15-8.9 20.4l-228.3 205.4c-1.1 1-2.4 1.3-3.5 2.1-1.6 1.1-3.2 2.3-5 3-2 0.8-4.1 1-6.2 1.3-1.2 0.2-2.4 0.7-3.6 0.7h-398.4c-45 0-81.6-36.6-81.6-81.6v-731.6c0-45 36.6-81.6 81.6-81.6h572.6c45 0 81.6 36.6 81.6 81.6v579.2c-0.1 0.4-0.3 0.7-0.3 1.1zM650.9 742.4l130.1-117h-103.6c-14.6 0-26.5 11.9-26.5 26.5v90.5zM824.1 18.5c0-14.6-11.9-26.5-26.5-26.5h-572.5c-14.6 0-26.5 11.9-26.5 26.5v731.7c0 14.6 11.9 26.5 26.5 26.5h370.8v-124.8c0-45 36.6-81.6 81.6-81.6h146.7v-551.8z"  horiz-adv-x="1024" />

    
    <glyph glyph-name="bianji" unicode="&#58988;" d="M294.216 250.846v-98.404h98.403l290.356 290.355-98.404 98.403zM697.566 617.088c-10.237 10.261-26.844 10.261-37.105 0l-48.074-48.072 98.399-98.402 48.074 48.071c10.26 10.262 10.26 26.872 0 37.105l-61.294 61.298zM198.243-39.333h670.619c52.883 0 95.803 42.872 95.803 95.803V727.09c0 52.883-42.92 95.803-95.803 95.803H198.243c-52.884 0-95.803-42.92-95.803-95.803v-670.62c0-52.931 42.919-95.803 95.803-95.803z m0.004 766.426h670.62v-670.622l-670.62-0.048v670.67z"  horiz-adv-x="1024" />

    
    <glyph glyph-name="chakanyuanyin" unicode="&#58966;" d="M512 896C229.233 896 0 666.766 0 384c0-282.773 229.233-512 512-512 282.772 0 512 229.227 512 512C1024 666.766 794.772 896 512 896z m-3.27-811.766c-29.716 0-53.802 23.628-53.802 52.78 0 29.15 24.086 52.779 53.802 52.779 29.715 0 53.807-23.63 53.807-52.78 0-29.15-24.092-52.78-53.807-52.78z m202.932 360.364c-14.773-23.27-46.25-55.02-94.484-95.138-24.986-20.76-40.458-37.463-46.49-50.123-6.037-12.612-8.788-35.25-8.218-67.772H454.928c-0.29 15.417-0.431 24.846-0.431 28.195 0 34.824 5.764 63.433 17.285 85.882 11.52 22.448 34.561 47.76 69.117 75.799 34.523 28.077 55.228 46.461 61.958 55.17 10.38 13.773 15.606 28.922 15.606 45.49 0 22.952-9.267 42.645-27.674 59.029-18.414 16.379-43.266 24.596-74.513 24.596-30.101 0-55.278-8.564-75.558-25.618-20.252-17.06-37.624-54.731-41.767-78.057-3.902-21.991-109.934-31.253-108.66 13.304 1.274 44.562 24.505 92.948 64.277 128.063 39.777 35.08 91.987 52.64 156.61 52.64 68 0 122.11-17.765 162.278-53.288 40.203-35.525 60.254-76.883 60.254-124.045 0-26.115-7.34-50.823-22.048-74.127z"  horiz-adv-x="1024" />

    
    <glyph glyph-name="ziyuan" unicode="&#59798;" d="M1283.213 84.12c-0.283-26.876-7.654-51.972-20.326-73.583l-377.834 425.303 375.12 326.16c14.637-22.624 23.355-50.265 23.401-79.94l-0.001-597.94M683.453 358.8l521.28 456.48c-20.77 11.772-45.618 18.712-72.085 18.72h-899.915c-0.017 0-0.037 0-0.058 0-26.422 0-51.221-6.942-72.675-19.102l523.453-456.098M827.453 386.52l-120.6-105.84c-6.426-6.053-15.109-9.773-24.66-9.773s-18.233 3.72-24.678 9.789l-120.581 105.823-381.6-429.48c22.444-14.447 49.848-23.033 79.257-23.040h899.943c29.411 0.019 56.811 8.616 79.837 23.424l-385.476 429.096M106.733 762c-14.552-22.483-23.259-49.931-23.412-79.403l0.012-598.477c0.248-26.831 7.599-51.894 20.259-73.464l377.901 425.185-374.76 326.16M106.733 762z"  horiz-adv-x="1365" />

    
    <glyph glyph-name="down2" unicode="&#59332;" d="M744.63 247.737h-460.527l230.265-311.085zM640.662 465.76v-180.8h-255.247v180.8h255.247zM640.662 651.878v-122.307h-255.247v122.307h255.247zM640.662 832.677v-90.399h-255.247v90.399h255.247z"  horiz-adv-x="1024" />

    
    <glyph glyph-name="down3" unicode="&#59334;" d="M512 96l224 288.384-149.312-0.384v288h-148.543l-0.832-288h-149.313z"  horiz-adv-x="1024" />

    
    <glyph glyph-name="shangsheng" unicode="&#58912;" d="M652.726753 524.919576h152.801234L510.293601 895.996587 215.052388 524.919576h152.811473L511.65872-127.996587z"  horiz-adv-x="1024" />

    
    <glyph glyph-name="shangla" unicode="&#944146;" d="M893.288 234.77200000000005c0-10.305-3.943-20.602-11.79199999-28.457-15.732-15.732-41.172-15.732-56.90500001 0l-310.334 310.334-314.834-314.834c-15.73-15.735-41.17-15.735-56.90500001 0-15.735 15.732-15.735 41.17 1e-8 56.905L485.806 602.008c15.735 15.735 41.172 15.735 56.905 0L881.495 263.227C889.338 255.37699999999995 893.288 245.07900000999996 893.288 234.77200000000005L893.288 234.77200000000005z"  horiz-adv-x="1024" />

    


  </font>
</defs>
</svg>
