<?xml version="1.0" encoding="UTF-8"?>
<!DOCTYPE svg PUBLIC "-//W3C//DTD SVG 1.1//EN" "http://www.w3.org/Graphics/SVG/1.1/DTD/svg11.dtd">
<!-- Creator: CorelDRAW -->
<svg xmlns="http://www.w3.org/2000/svg" xml:space="preserve" width="30mm" height="30mm" style="shape-rendering:geometricPrecision; text-rendering:geometricPrecision; image-rendering:optimizeQuality; fill-rule:evenodd; clip-rule:evenodd"
viewBox="0 0 3.54883 3.54883"
 xmlns:xlink="http://www.w3.org/1999/xlink">
 <defs>
  <style type="text/css">
   <![CDATA[
    .fil1 {fill:white}
    .fil0 {fill:#C5CDD9}
   ]]>
  </style>
 </defs>
 <g id="图层_x0020_1">
  <metadata id="CorelCorpID_0Corel-Layer"/>
  <circle class="fil0" cx="1.77442" cy="1.77442" r="1.77442"/>
  <path class="fil1" d="M1.64089 0.645083c0.352648,0 0.638648,0.286001 0.638648,0.638648 0,0.265003 -0.161507,0.492365 -0.39146,0.589012 0.0596914,0.0158988 0.117088,0.0374402 0.171598,0.0639973l-0.000141953 0.00021293c0.109375,-0.138771 0.278962,-0.227859 0.469322,-0.227859 0.329829,0 0.597328,0.267487 0.597328,0.597328 0,0.329829 -0.267499,0.597328 -0.597328,0.597328 -0.329829,0 -0.597328,-0.267499 -0.597328,-0.597328 0,-0.110937 0.030307,-0.214811 0.0830191,-0.303839l-0.000520496 0.000768914 -3.54883e-005 4.73178e-005c-0.102242,-0.0480749 -0.215237,-0.0770452 -0.334407,-0.0822147 -0.0128113,0.000768914 -0.0256936,0.00119477 -0.0386941,0.00119477 -0.0127995,0 -0.0255043,-0.00042586 -0.0381027,-0.00115929 -0.467228,0.0199563 -0.840033,0.405123 -0.840033,0.87726l-0.0798369 0c0,-0.44351 0.301615,-0.816693 0.710855,-0.925702 -0.229964,-0.0966348 -0.391531,-0.32402 -0.391531,-0.589047 0,-0.352648 0.286001,-0.638648 0.638648,-0.638648zm0.775243 1.85832l-0.154978 0 0 0.113965 0.256924 0c0.115633,0 0.204815,-0.0275035 0.267275,-0.0825104 0.062424,-0.0551607 0.0937365,-0.13081 0.0937365,-0.227315 0,-0.0920568 -0.0308512,-0.166984 -0.0923762,-0.22502 -0.0616787,-0.0580353 -0.145408,-0.0870529 -0.251317,-0.0870529l-0.274242 0 0 0.38551 0.154978 0 0 -0.271557 0.0992136 0c0.0659373,0 0.116378,0.0176259 0.151654,0.0527238 0.0350861,0.0352518 0.052712,0.0834213 0.052712,0.144485 0,0.0591236 -0.0174839,0.106678 -0.0521087,0.142699 -0.0348022,0.0359852 -0.0849591,0.0540724 -0.150435,0.0540724l-0.101035 0zm-0.775243 -0.662899c0.0126812,0 0.0252914,0.000236589 0.0378542,0.000733426 0.290945,-0.0194594 0.520969,-0.261656 0.520969,-0.55751 0,-0.308583 -0.25024,-0.558811 -0.558823,-0.558811 -0.308571,0 -0.558811,0.250228 -0.558811,0.558811 0,0.296115 0.230438,0.538465 0.521726,0.557557 0.0123145,-0.000461348 0.0246644,-0.000780744 0.0370853,-0.000780744z"/>
 </g>
</svg>
