<?xml version="1.0" encoding="UTF-8"?>
<!DOCTYPE svg PUBLIC "-//W3C//DTD SVG 1.1//EN" "http://www.w3.org/Graphics/SVG/1.1/DTD/svg11.dtd">
<!-- Creator: CorelDRAW -->
<svg xmlns="http://www.w3.org/2000/svg" xml:space="preserve" width="30mm" height="30mm" style="shape-rendering:geometricPrecision; text-rendering:geometricPrecision; image-rendering:optimizeQuality; fill-rule:evenodd; clip-rule:evenodd"
viewBox="0 0 17.1794 17.1794"
 xmlns:xlink="http://www.w3.org/1999/xlink">
 <defs>
  <style type="text/css">
   <![CDATA[
    .fil1 {fill:white}
    .fil0 {fill:#32D27F}
   ]]>
  </style>
 </defs>
 <g id="图层_x0020_1">
  <metadata id="CorelCorpID_0Corel-Layer"/>
  <circle class="fil0" cx="8.58972" cy="8.58972" r="8.58972"/>
  <path class="fil1" d="M7.94332 3.12276c1.70712,0 3.09161,1.38449 3.09161,3.09161 0,1.28285 -0.781836,2.38348 -1.89501,2.85133 0.288901,0.0769639 0.566807,0.181243 0.830683,0.309803l-0.000744442 0.00103077c0.529528,-0.671773 1.35042,-1.10303 2.27198,-1.10303 1.59666,0 2.89159,1.29487 2.89159,2.89159 0,1.59666 -1.29493,2.89159 -2.89159,2.89159 -1.59666,0 -2.89159,-1.29493 -2.89159,-2.89159 0,-0.537029 0.146712,-1.03987 0.401884,-1.47085l-0.00251965 0.00372221 -0.000171794 0.000229059c-0.49494,-0.232724 -1.04193,-0.372966 -1.61888,-0.39799 -0.0619605,0.00372221 -0.124322,0.00578375 -0.187256,0.00578375 -0.0619605,0 -0.12352,-0.00206153 -0.184507,-0.00561195 -2.26173,0.0966057 -4.06643,1.96115 -4.06643,4.2467l-0.38648 0c0,-2.14697 1.46008,-3.9535 3.4411,-4.4812 -1.11317,-0.467796 -1.89529,-1.56854 -1.89529,-2.8515 0,-1.70712 1.38449,-3.09161 3.09161,-3.09161zm5.76811 6.74608l0 0.6574c-0.383216,-0.185309 -0.758358,-0.277906 -1.12462,-0.277906 -0.353038,0 -0.626019,0.0889322 -0.816367,0.266969 -0.191264,0.177922 -0.286897,0.405263 -0.286897,0.680993 0,0.264105 0.0956322,0.478047 0.286897,0.64211 0.190348,0.164006 0.44197,0.245723 0.753891,0.245723 0.165495,0 0.331048,-0.0360768 0.497917,-0.107429l0 -0.351549 -0.435442 0 0 -0.551575 1.1871 0 0 1.23051c-0.119111,0.119111 -0.300068,0.216175 -0.5435,0.291936 -0.244177,0.0750742 -0.484689,0.113213 -0.723025,0.113213 -0.524374,0 -0.955463,-0.144823 -1.29229,-0.43464 -0.336889,-0.289015 -0.505305,-0.657514 -0.505305,-1.10407 0,-0.456687 0.168416,-0.829595 0.505305,-1.11729 0.336832,-0.288214 0.773705,-0.432349 1.30925,-0.432349 0.442714,0 0.838471,0.0831485 1.1871,0.247957zm-5.76811 -0.959185c0.0613879,0 0.122432,0.0011453 0.183247,0.00355042 1.40843,-0.0942006 2.52194,-1.26664 2.52194,-2.69883 0,-1.49381 -1.21138,-2.70513 -2.70519,-2.70513 -1.49381,0 -2.70513,1.21132 -2.70513,2.70513 0,1.43345 1.11552,2.60664 2.52561,2.69906 0.0595554,-0.00223333 0.119397,-0.00377948 0.179525,-0.00377948z"/>
 </g>
</svg>
