<?xml version="1.0" encoding="UTF-8"?>
<!DOCTYPE svg PUBLIC "-//W3C//DTD SVG 1.1//EN" "http://www.w3.org/Graphics/SVG/1.1/DTD/svg11.dtd">
<!-- Creator: CorelDRAW -->
<svg xmlns="http://www.w3.org/2000/svg" xml:space="preserve" width="30mm" height="30mm" style="shape-rendering:geometricPrecision; text-rendering:geometricPrecision; image-rendering:optimizeQuality; fill-rule:evenodd; clip-rule:evenodd"
viewBox="0 0 5.99025 5.99025"
 xmlns:xlink="http://www.w3.org/1999/xlink">
 <defs>
  <style type="text/css">
   <![CDATA[
    .fil1 {fill:white}
    .fil0 {fill:#C5CDD9}
   ]]>
  </style>
 </defs>
 <g id="图层_x0020_1">
  <metadata id="CorelCorpID_0Corel-Layer"/>
  <circle class="fil0" cx="2.99512" cy="2.99512" r="2.99512"/>
  <path class="fil1" d="M2.76971 1.08887c0.595251,0 1.07801,0.482754 1.07801,1.07801 0,0.447312 -0.272616,0.831087 -0.660764,0.994221 0.100756,0.0268363 0.197638,0.0631971 0.289648,0.108024l-0.000259577 0.000359415c0.184639,-0.234239 0.470873,-0.384614 0.79221,-0.384614 0.556734,0 1.00826,0.451505 1.00826,1.00826 0,0.556734 -0.451525,1.00826 -1.00826,1.00826 -0.556734,0 -1.00826,-0.451525 -1.00826,-1.00826 0,-0.187255 0.0511567,-0.36259 0.140132,-0.512865l-0.00087857 0.00129789 -5.99025e-005 7.987e-005c-0.172579,-0.0811479 -0.363309,-0.130048 -0.564461,-0.138774 -0.0216248,0.00129789 -0.0433694,0.00201672 -0.0653137,0.00201672 -0.0216048,0 -0.0430699,-0.00071883 -0.0643153,-0.00195681 -0.788656,0.0336852 -1.41793,0.683827 -1.41793,1.48077l-0.134761 0c0,-0.748621 0.509111,-1.37854 1.19989,-1.56254 -0.388168,-0.163114 -0.660884,-0.54693 -0.660884,-0.994281 0,-0.595251 0.482754,-1.07801 1.07801,-1.07801zm1.72274 2.12616l0 0.952769c0,0.269002 -0.123858,0.403403 -0.371335,0.403403 -0.023362,0 -0.0490002,-0.00127792 -0.0764555,-0.00359415l0 -0.205925c0.0138375,0.00257581 0.0271758,0.00385373 0.0397752,0.00385373 0.0977209,0 0.146442,-0.0643752 0.146442,-0.193126l0 -0.957381 0.261574 0zm-1.72274 -0.108344c0.0214052,0 0.0426905,0.00039935 0.063896,0.00123798 0.4911,-0.0328465 0.879368,-0.441661 0.879368,-0.941048 0,-0.520872 -0.422392,-0.943244 -0.943264,-0.943244 -0.520852,0 -0.943244,0.422372 -0.943244,0.943244 0,0.499826 0.388967,0.9089 0.880646,0.941128 0.0207862,-0.000778732 0.0416322,-0.00131785 0.0625981,-0.00131785z"/>
 </g>
</svg>
