<?xml version="1.0" encoding="UTF-8"?>
<!DOCTYPE svg PUBLIC "-//W3C//DTD SVG 1.1//EN" "http://www.w3.org/Graphics/SVG/1.1/DTD/svg11.dtd">
<!-- Creator: CorelDRAW -->
<svg xmlns="http://www.w3.org/2000/svg" xml:space="preserve" width="30mm" height="30mm" style="shape-rendering:geometricPrecision; text-rendering:geometricPrecision; image-rendering:optimizeQuality; fill-rule:evenodd; clip-rule:evenodd"
viewBox="0 0 5.28335 5.28335"
 xmlns:xlink="http://www.w3.org/1999/xlink">
 <defs>
  <style type="text/css">
   <![CDATA[
    .fil1 {fill:white}
    .fil0 {fill:#F36A5A}
   ]]>
  </style>
 </defs>
 <g id="图层_x0020_1">
  <metadata id="CorelCorpID_0Corel-Layer"/>
  <circle class="fil0" cx="2.64167" cy="2.64167" r="2.64167"/>
  <path class="fil1" d="M2.64169 1.03874c0.525006,0 0.950791,0.425785 0.950791,0.950791 0,0.394578 -0.240533,0.733064 -0.582876,0.87693 0.60924,0.162304 1.05827,0.717883 1.05827,1.37816l-0.11884 0c0,-0.702896 -0.555033,-1.27633 -1.2506,-1.30604 -0.0187911,0.00109189 -0.0377055,0.0017435 -0.0567431,0.0017435 -0.0190553,0 -0.0379873,-0.000651613 -0.0567431,-0.0017435 -0.69557,0.02971 -1.2506,0.603147 -1.2506,1.30604l-0.11884 0c0,-0.660277 0.449032,-1.21586 1.05827,-1.37816 -0.342343,-0.143848 -0.582876,-0.482387 -0.582876,-0.87693 0,-0.525006 0.425785,-0.950791 0.950791,-0.950791zm0 1.7797c0.0184917,0 0.0368954,0.000475501 0.055211,0.00116234 0.433657,-0.028442 0.77674,-0.389242 0.77674,-0.830066 0,-0.459405 -0.372546,-0.831951 -0.831951,-0.831951 -0.459405,0 -0.831951,0.372546 -0.831951,0.831951 0,0.440825 0.343083,0.801624 0.77674,0.830066 0.0183156,-0.000686835 0.0367193,-0.00116234 0.055211,-0.00116234z"/>
 </g>
</svg>
