<?xml version="1.0" encoding="UTF-8"?>
<!DOCTYPE svg PUBLIC "-//W3C//DTD SVG 1.1//EN" "http://www.w3.org/Graphics/SVG/1.1/DTD/svg11.dtd">
<!-- Creator: CorelDRAW -->
<svg xmlns="http://www.w3.org/2000/svg" xml:space="preserve" width="30mm" height="30mm" style="shape-rendering:geometricPrecision; text-rendering:geometricPrecision; image-rendering:optimizeQuality; fill-rule:evenodd; clip-rule:evenodd"
viewBox="0 0 10.9775 10.9775"
 xmlns:xlink="http://www.w3.org/1999/xlink">
 <defs>
  <style type="text/css">
   <![CDATA[
    .fil1 {fill:white}
    .fil0 {fill:#C5CDD9}
   ]]>
  </style>
 </defs>
 <g id="图层_x0020_1">
  <metadata id="CorelCorpID_0Corel-Layer"/>
  <circle class="fil0" cx="5.48874" cy="5.48874" r="5.48874"/>
  <path class="fil1" d="M5.48878 2.15825c1.09083,0 1.97551,0.884675 1.97551,1.97551 0,0.819835 -0.499768,1.52313 -1.21107,1.82204 1.26585,0.337228 2.19883,1.49158 2.19883,2.86348l-0.24692 0c0,-1.46044 -1.15322,-2.6519 -2.59844,-2.71363 -0.0390433,0.00226868 -0.0783426,0.00362257 -0.117898,0.00362257 -0.0395921,0 -0.0789281,-0.00135389 -0.117898,-0.00362257 -1.44522,0.0617301 -2.59844,1.25319 -2.59844,2.71363l-0.24692 0c0,-1.37189 0.932976,-2.52625 2.19883,-2.86348 -0.711304,-0.29888 -1.21107,-1.00228 -1.21107,-1.82204 0,-1.09083 0.884675,-1.97551 1.97551,-1.97551zm0 3.69777c0.0384212,0 0.0766594,0.000987974 0.114715,0.00241505 0.901032,-0.0590955 1.61387,-0.808748 1.61387,-1.72467 0,-0.954529 -0.774059,-1.72859 -1.72859,-1.72859 -0.954529,0 -1.72859,0.774059 -1.72859,1.72859 0,0.915925 0.712841,1.66558 1.61387,1.72467 0.0380553,-0.00142707 0.0762935,-0.00241505 0.114715,-0.00241505z"/>
 </g>
</svg>
