<?xml version="1.0" encoding="UTF-8"?>
<!DOCTYPE svg PUBLIC "-//W3C//DTD SVG 1.1//EN" "http://www.w3.org/Graphics/SVG/1.1/DTD/svg11.dtd">
<!-- Creator: CorelDRAW -->
<svg xmlns="http://www.w3.org/2000/svg" xml:space="preserve" width="30mm" height="30mm" style="shape-rendering:geometricPrecision; text-rendering:geometricPrecision; image-rendering:optimizeQuality; fill-rule:evenodd; clip-rule:evenodd"
viewBox="0 0 3.49894 3.49894"
 xmlns:xlink="http://www.w3.org/1999/xlink">
 <defs>
  <style type="text/css">
   <![CDATA[
    .fil1 {fill:white}
    .fil0 {fill:#4B77BE}
   ]]>
  </style>
 </defs>
 <g id="图层_x0020_1">
  <metadata id="CorelCorpID_0Corel-Layer"/>
  <circle class="fil0" cx="1.74947" cy="1.74947" r="1.74947"/>
  <path class="fil1" d="M1.74948 0.687916c0.34769,0 0.62967,0.28198 0.62967,0.62967 0,0.261313 -0.159295,0.485479 -0.386015,0.580755 0.403475,0.107488 0.70085,0.475425 0.70085,0.9127l-0.0787029 0c0,-0.4655 -0.367576,-0.845263 -0.828224,-0.864939 -0.0124446,0.000723115 -0.0249708,0.00115465 -0.0375787,0.00115465 -0.0126195,0 -0.0251574,-0.000431537 -0.0375787,-0.00115465 -0.460648,0.0196757 -0.828224,0.39944 -0.828224,0.864939l-0.0787029 0c0,-0.437275 0.297375,-0.805212 0.70085,-0.9127 -0.22672,-0.0952646 -0.386015,-0.319465 -0.386015,-0.580755 0,-0.34769 0.28198,-0.62967 0.62967,-0.62967zm0 1.17862c0.0122463,0 0.0244343,0.000314905 0.036564,0.000769768 0.287193,-0.018836 0.514403,-0.257779 0.514403,-0.549719 0,-0.304245 -0.246722,-0.550967 -0.550967,-0.550967 -0.304245,0 -0.550967,0.246722 -0.550967,0.550967 0,0.29194 0.22721,0.530883 0.514403,0.549719 0.0121297,-0.000454863 0.0243177,-0.000769768 0.036564,-0.000769768z"/>
 </g>
</svg>
